solid AMI_Refinment
   facet normal 0 -1 0
      outer loop
         vertex 0.00628190940645017 0.12259 0.179890348863437
         vertex -0.00628190940645019 0.12259 0.179890348863437
         vertex 0.0188151233881776 0.12259 0.179013941166289
      endloop
   endfacet
   facet normal 0 -1 0
      outer loop
         vertex 0.0188151233881776 0.12259 0.179013941166289
         vertex -0.00628190940645019 0.12259 0.179890348863437
         vertex -0.0188151233881777 0.12259 0.179013941166289
      endloop
   endfacet
   facet normal 0 -1 0
      outer loop
         vertex 0.0188151233881776 0.12259 0.179013941166289
         vertex -0.0188151233881777 0.12259 0.179013941166289
         vertex 0.0312566719800475 0.12259 0.177265395542197
      endloop
   endfacet
   facet normal 0 -1 0
      outer loop
         vertex 0.0312566719800475 0.12259 0.177265395542197
         vertex -0.0188151233881777 0.12259 0.179013941166289
         vertex -0.0312566719800475 0.12259 0.177265395542197
      endloop
   endfacet
   facet normal 0 -1 0
      outer loop
         vertex 0.0312566719800475 0.12259 0.177265395542197
         vertex -0.0312566719800475 0.12259 0.177265395542197
         vertex 0.0435459412079402 0.12259 0.174653230729679
      endloop
   endfacet
   facet normal 0 -1 0
      outer loop
         vertex 0.0435459412079402 0.12259 0.174653230729679
         vertex -0.0312566719800475 0.12259 0.177265395542197
         vertex -0.0435459412079402 0.12259 0.174653230729679
      endloop
   endfacet
   facet normal 0 -1 0
      outer loop
         vertex 0.0435459412079402 0.12259 0.174653230729679
         vertex -0.0435459412079402 0.12259 0.174653230729679
         vertex 0.0556230589874905 0.12259 0.171190172933128
      endloop
   endfacet
   facet normal 0 -1 0
      outer loop
         vertex 0.0556230589874905 0.12259 0.171190172933128
         vertex -0.0435459412079402 0.12259 0.174653230729679
         vertex -0.0556230589874905 0.12259 0.171190172933128
      endloop
   endfacet
   facet normal 0 -1 0
      outer loop
         vertex 0.0556230589874905 0.12259 0.171190172933128
         vertex -0.0556230589874905 0.12259 0.171190172933128
         vertex 0.0674291868148641 0.12259 0.166893093822022
      endloop
   endfacet
   facet normal 0 -1 0
      outer loop
         vertex 0.0674291868148641 0.12259 0.166893093822022
         vertex -0.0556230589874905 0.12259 0.171190172933128
         vertex -0.0674291868148642 0.12259 0.166893093822022
      endloop
   endfacet
   facet normal 0 -1 0
      outer loop
         vertex 0.0674291868148641 0.12259 0.166893093822022
         vertex -0.0674291868148642 0.12259 0.166893093822022
         vertex 0.0789068064220339 0.12259 0.16178292833385
      endloop
   endfacet
   facet normal 0 -1 0
      outer loop
         vertex 0.0789068064220339 0.12259 0.16178292833385
         vertex -0.0674291868148642 0.12259 0.166893093822022
         vertex -0.078906806422034 0.12259 0.16178292833385
      endloop
   endfacet
   facet normal 0 -1 0
      outer loop
         vertex 0.0789068064220339 0.12259 0.16178292833385
         vertex -0.078906806422034 0.12259 0.16178292833385
         vertex 0.09 0.12259 0.155884572681199
      endloop
   endfacet
   facet normal 0 -1 0
      outer loop
         vertex 0.09 0.12259 0.155884572681199
         vertex -0.078906806422034 0.12259 0.16178292833385
         vertex -0.09 0.12259 0.155884572681199
      endloop
   endfacet
   facet normal 0 -1 0
      outer loop
         vertex 0.09 0.12259 0.155884572681199
         vertex -0.09 0.12259 0.155884572681199
         vertex 0.100654722624734 0.12259 0.149226763059907
      endloop
   endfacet
   facet normal 0 -1 0
      outer loop
         vertex 0.100654722624734 0.12259 0.149226763059907
         vertex -0.09 0.12259 0.155884572681199
         vertex -0.100654722624734 0.12259 0.149226763059907
      endloop
   endfacet
   facet normal 0 -1 0
      outer loop
         vertex 0.100654722624734 0.12259 0.149226763059907
         vertex -0.100654722624734 0.12259 0.149226763059907
         vertex 0.110819065558618 0.12259 0.14184193564921
      endloop
   endfacet
   facet normal 0 -1 0
      outer loop
         vertex 0.110819065558618 0.12259 0.14184193564921
         vertex -0.100654722624734 0.12259 0.149226763059907
         vertex -0.110819065558618 0.12259 0.14184193564921
      endloop
   endfacet
   facet normal 0 -1 0
      outer loop
         vertex 0.110819065558618 0.12259 0.14184193564921
         vertex -0.110819065558618 0.12259 0.14184193564921
         vertex 0.120443509144594 0.12259 0.133766068585931
      endloop
   endfacet
   facet normal 0 -1 0
      outer loop
         vertex 0.120443509144594 0.12259 0.133766068585931
         vertex -0.110819065558618 0.12259 0.14184193564921
         vertex -0.120443509144594 0.12259 0.133766068585931
      endloop
   endfacet
   facet normal 0 -1 0
      outer loop
         vertex 0.120443509144594 0.12259 0.133766068585931
         vertex -0.120443509144594 0.12259 0.133766068585931
         vertex 0.129481164060957 0.12259 0.12503850668262
      endloop
   endfacet
   facet normal 0 -1 0
      outer loop
         vertex 0.129481164060957 0.12259 0.12503850668262
         vertex -0.120443509144594 0.12259 0.133766068585931
         vertex -0.129481164060957 0.12259 0.125038506682619
      endloop
   endfacet
   facet normal 0 -1 0
      outer loop
         vertex 0.129481164060957 0.12259 0.12503850668262
         vertex -0.129481164060957 0.12259 0.125038506682619
         vertex 0.137887999761416 0.12259 0.115701769743577
      endloop
   endfacet
   facet normal 0 -1 0
      outer loop
         vertex 0.137887999761416 0.12259 0.115701769743577
         vertex -0.129481164060957 0.12259 0.125038506682619
         vertex -0.137887999761416 0.12259 0.115701769743577
      endloop
   endfacet
   facet normal 0 -1 0
      outer loop
         vertex 0.137887999761416 0.12259 0.115701769743577
         vertex -0.137887999761416 0.12259 0.115701769743577
         vertex 0.145623058987491 0.12259 0.105801345412645
      endloop
   endfacet
   facet normal 0 -1 0
      outer loop
         vertex 0.145623058987491 0.12259 0.105801345412645
         vertex -0.137887999761416 0.12259 0.115701769743577
         vertex -0.145623058987491 0.12259 0.105801345412645
      endloop
   endfacet
   facet normal 0 -1 0
      outer loop
         vertex 0.145623058987491 0.12259 0.105801345412645
         vertex -0.145623058987491 0.12259 0.105801345412645
         vertex 0.152648657308157 0.12259 0.0953854675619769
      endloop
   endfacet
   facet normal 0 -1 0
      outer loop
         vertex 0.152648657308157 0.12259 0.0953854675619769
         vertex -0.145623058987491 0.12259 0.105801345412645
         vertex -0.152648657308157 0.12259 0.0953854675619769
      endloop
   endfacet
   facet normal 0 -1 0
      outer loop
         vertex 0.152648657308157 0.12259 0.0953854675619769
         vertex -0.152648657308157 0.12259 0.0953854675619769
         vertex 0.158930566714607 0.12259 0.0845048813014603
      endloop
   endfacet
   facet normal 0 -1 0
      outer loop
         vertex 0.158930566714607 0.12259 0.0845048813014603
         vertex -0.152648657308157 0.12259 0.0953854675619769
         vertex -0.158930566714607 0.12259 0.0845048813014603
      endloop
   endfacet
   facet normal 0 -1 0
      outer loop
         vertex 0.158930566714607 0.12259 0.0845048813014603
         vertex -0.158930566714607 0.12259 0.0845048813014603
         vertex 0.164438182375668 0.12259 0.0732125957536441
      endloop
   endfacet
   facet normal 0 -1 0
      outer loop
         vertex 0.164438182375668 0.12259 0.0732125957536441
         vertex -0.158930566714607 0.12259 0.0845048813014603
         vertex -0.164438182375668 0.12259 0.073212595753644
      endloop
   endfacet
   facet normal 0 -1 0
      outer loop
         vertex 0.164438182375668 0.12259 0.0732125957536441
         vertex -0.164438182375668 0.12259 0.073212595753644
         vertex 0.169144671741463 0.12259 0.0615636257986204
      endloop
   endfacet
   facet normal 0 -1 0
      outer loop
         vertex 0.169144671741463 0.12259 0.0615636257986204
         vertex -0.164438182375668 0.12259 0.073212595753644
         vertex -0.169144671741463 0.12259 0.0615636257986204
      endloop
   endfacet
   facet normal 0 -1 0
      outer loop
         vertex 0.169144671741463 0.12259 0.0615636257986204
         vertex -0.169144671741463 0.12259 0.0615636257986204
         vertex 0.173027105268897 0.12259 0.0496147240470599
      endloop
   endfacet
   facet normal 0 -1 0
      outer loop
         vertex 0.173027105268897 0.12259 0.0496147240470599
         vertex -0.169144671741463 0.12259 0.0615636257986204
         vertex -0.173027105268897 0.12259 0.0496147240470598
      endloop
   endfacet
   facet normal 0 -1 0
      outer loop
         vertex 0.173027105268897 0.12259 0.0496147240470599
         vertex -0.173027105268897 0.12259 0.0496147240470598
         vertex 0.176066568132085 0.12259 0.0374241043471967
      endloop
   endfacet
   facet normal 0 -1 0
      outer loop
         vertex 0.176066568132085 0.12259 0.0374241043471967
         vertex -0.173027105268897 0.12259 0.0496147240470598
         vertex -0.176066568132085 0.12259 0.0374241043471967
      endloop
   endfacet
   facet normal 0 -1 0
      outer loop
         vertex 0.176066568132085 0.12259 0.0374241043471967
         vertex -0.176066568132085 0.12259 0.0374241043471967
         vertex 0.178248252373483 0.12259 0.0250511581728118
      endloop
   endfacet
   facet normal 0 -1 0
      outer loop
         vertex 0.178248252373483 0.12259 0.0250511581728118
         vertex -0.176066568132085 0.12259 0.0374241043471967
         vertex -0.178248252373483 0.12259 0.0250511581728117
      endloop
   endfacet
   facet normal 0 -1 0
      outer loop
         vertex 0.178248252373483 0.12259 0.0250511581728118
         vertex -0.178248252373483 0.12259 0.0250511581728117
         vertex 0.179561529046768 0.12259 0.0125561652739426
      endloop
   endfacet
   facet normal 0 -1 0
      outer loop
         vertex 0.179561529046768 0.12259 0.0125561652739426
         vertex -0.178248252373483 0.12259 0.0250511581728117
         vertex -0.179561529046768 0.12259 0.0125561652739426
      endloop
   endfacet
   facet normal 0 -1 0
      outer loop
         vertex 0.179561529046768 0.12259 0.0125561652739426
         vertex -0.179561529046768 0.12259 0.0125561652739426
         vertex 0.18 0.12259 2.20436423846524E-17
      endloop
   endfacet
   facet normal 0 -1 0
      outer loop
         vertex 0.18 0.12259 2.20436423846524E-17
         vertex -0.179561529046768 0.12259 0.0125561652739426
         vertex -0.18 0.12259 0
      endloop
   endfacet
   facet normal 0 -1 0
      outer loop
         vertex 0.18 0.12259 2.20436423846524E-17
         vertex -0.18 0.12259 0
         vertex 0.179561529046768 0.12259 -0.0125561652739426
      endloop
   endfacet
   facet normal 0 -1 0
      outer loop
         vertex 0.179561529046768 0.12259 -0.0125561652739426
         vertex -0.18 0.12259 0
         vertex -0.179561529046768 0.12259 -0.0125561652739426
      endloop
   endfacet
   facet normal 0 -1 0
      outer loop
         vertex 0.179561529046768 0.12259 -0.0125561652739426
         vertex -0.179561529046768 0.12259 -0.0125561652739426
         vertex 0.178248252373483 0.12259 -0.0250511581728118
      endloop
   endfacet
   facet normal 0 -1 0
      outer loop
         vertex 0.178248252373483 0.12259 -0.0250511581728118
         vertex -0.179561529046768 0.12259 -0.0125561652739426
         vertex -0.178248252373483 0.12259 -0.0250511581728118
      endloop
   endfacet
   facet normal 0 -1 0
      outer loop
         vertex 0.178248252373483 0.12259 -0.0250511581728118
         vertex -0.178248252373483 0.12259 -0.0250511581728118
         vertex 0.176066568132085 0.12259 -0.0374241043471968
      endloop
   endfacet
   facet normal 0 -1 0
      outer loop
         vertex 0.176066568132085 0.12259 -0.0374241043471968
         vertex -0.178248252373483 0.12259 -0.0250511581728118
         vertex -0.176066568132085 0.12259 -0.0374241043471967
      endloop
   endfacet
   facet normal 0 -1 0
      outer loop
         vertex 0.176066568132085 0.12259 -0.0374241043471968
         vertex -0.176066568132085 0.12259 -0.0374241043471967
         vertex 0.173027105268897 0.12259 -0.0496147240470598
      endloop
   endfacet
   facet normal 0 -1 0
      outer loop
         vertex 0.173027105268897 0.12259 -0.0496147240470598
         vertex -0.176066568132085 0.12259 -0.0374241043471967
         vertex -0.173027105268897 0.12259 -0.0496147240470598
      endloop
   endfacet
   facet normal 0 -1 0
      outer loop
         vertex 0.173027105268897 0.12259 -0.0496147240470598
         vertex -0.173027105268897 0.12259 -0.0496147240470598
         vertex 0.169144671741463 0.12259 -0.0615636257986203
      endloop
   endfacet
   facet normal 0 -1 0
      outer loop
         vertex 0.169144671741463 0.12259 -0.0615636257986203
         vertex -0.173027105268897 0.12259 -0.0496147240470598
         vertex -0.169144671741463 0.12259 -0.0615636257986204
      endloop
   endfacet
   facet normal 0 -1 0
      outer loop
         vertex 0.169144671741463 0.12259 -0.0615636257986203
         vertex -0.169144671741463 0.12259 -0.0615636257986204
         vertex 0.164438182375668 0.12259 -0.073212595753644
      endloop
   endfacet
   facet normal 0 -1 0
      outer loop
         vertex 0.164438182375668 0.12259 -0.073212595753644
         vertex -0.169144671741463 0.12259 -0.0615636257986204
         vertex -0.164438182375668 0.12259 -0.073212595753644
      endloop
   endfacet
   facet normal 0 -1 0
      outer loop
         vertex 0.164438182375668 0.12259 -0.073212595753644
         vertex -0.164438182375668 0.12259 -0.073212595753644
         vertex 0.158930566714607 0.12259 -0.0845048813014603
      endloop
   endfacet
   facet normal 0 -1 0
      outer loop
         vertex 0.158930566714607 0.12259 -0.0845048813014603
         vertex -0.164438182375668 0.12259 -0.073212595753644
         vertex -0.158930566714607 0.12259 -0.0845048813014604
      endloop
   endfacet
   facet normal 0 -1 0
      outer loop
         vertex 0.158930566714607 0.12259 -0.0845048813014603
         vertex -0.158930566714607 0.12259 -0.0845048813014604
         vertex 0.152648657308157 0.12259 -0.0953854675619769
      endloop
   endfacet
   facet normal 0 -1 0
      outer loop
         vertex 0.152648657308157 0.12259 -0.0953854675619769
         vertex -0.158930566714607 0.12259 -0.0845048813014604
         vertex -0.152648657308157 0.12259 -0.0953854675619769
      endloop
   endfacet
   facet normal 0 -1 0
      outer loop
         vertex 0.152648657308157 0.12259 -0.0953854675619769
         vertex -0.152648657308157 0.12259 -0.0953854675619769
         vertex 0.145623058987491 0.12259 -0.105801345412645
      endloop
   endfacet
   facet normal 0 -1 0
      outer loop
         vertex 0.145623058987491 0.12259 -0.105801345412645
         vertex -0.152648657308157 0.12259 -0.0953854675619769
         vertex -0.145623058987491 0.12259 -0.105801345412645
      endloop
   endfacet
   facet normal 0 -1 0
      outer loop
         vertex 0.145623058987491 0.12259 -0.105801345412645
         vertex -0.145623058987491 0.12259 -0.105801345412645
         vertex 0.137887999761416 0.12259 -0.115701769743577
      endloop
   endfacet
   facet normal 0 -1 0
      outer loop
         vertex 0.137887999761416 0.12259 -0.115701769743577
         vertex -0.145623058987491 0.12259 -0.105801345412645
         vertex -0.137887999761416 0.12259 -0.115701769743577
      endloop
   endfacet
   facet normal 0 -1 0
      outer loop
         vertex 0.137887999761416 0.12259 -0.115701769743577
         vertex -0.137887999761416 0.12259 -0.115701769743577
         vertex 0.129481164060957 0.12259 -0.12503850668262
      endloop
   endfacet
   facet normal 0 -1 0
      outer loop
         vertex 0.129481164060957 0.12259 -0.12503850668262
         vertex -0.137887999761416 0.12259 -0.115701769743577
         vertex -0.129481164060957 0.12259 -0.12503850668262
      endloop
   endfacet
   facet normal 0 -1 0
      outer loop
         vertex 0.129481164060957 0.12259 -0.12503850668262
         vertex -0.129481164060957 0.12259 -0.12503850668262
         vertex 0.120443509144594 0.12259 -0.133766068585931
      endloop
   endfacet
   facet normal 0 -1 0
      outer loop
         vertex 0.120443509144594 0.12259 -0.133766068585931
         vertex -0.129481164060957 0.12259 -0.12503850668262
         vertex -0.120443509144594 0.12259 -0.133766068585931
      endloop
   endfacet
   facet normal 0 -1 0
      outer loop
         vertex 0.120443509144594 0.12259 -0.133766068585931
         vertex -0.120443509144594 0.12259 -0.133766068585931
         vertex 0.110819065558619 0.12259 -0.14184193564921
      endloop
   endfacet
   facet normal 0 -1 0
      outer loop
         vertex 0.110819065558619 0.12259 -0.14184193564921
         vertex -0.120443509144594 0.12259 -0.133766068585931
         vertex -0.110819065558618 0.12259 -0.14184193564921
      endloop
   endfacet
   facet normal 0 -1 0
      outer loop
         vertex 0.110819065558619 0.12259 -0.14184193564921
         vertex -0.110819065558618 0.12259 -0.14184193564921
         vertex 0.100654722624734 0.12259 -0.149226763059907
      endloop
   endfacet
   facet normal 0 -1 0
      outer loop
         vertex 0.100654722624734 0.12259 -0.149226763059907
         vertex -0.110819065558618 0.12259 -0.14184193564921
         vertex -0.100654722624734 0.12259 -0.149226763059908
      endloop
   endfacet
   facet normal 0 -1 0
      outer loop
         vertex 0.100654722624734 0.12259 -0.149226763059907
         vertex -0.100654722624734 0.12259 -0.149226763059908
         vertex 0.09 0.12259 -0.155884572681199
      endloop
   endfacet
   facet normal 0 -1 0
      outer loop
         vertex 0.09 0.12259 -0.155884572681199
         vertex -0.100654722624734 0.12259 -0.149226763059908
         vertex -0.09 0.12259 -0.155884572681199
      endloop
   endfacet
   facet normal 0 -1 0
      outer loop
         vertex 0.09 0.12259 -0.155884572681199
         vertex -0.09 0.12259 -0.155884572681199
         vertex 0.0789068064220339 0.12259 -0.16178292833385
      endloop
   endfacet
   facet normal 0 -1 0
      outer loop
         vertex 0.0789068064220339 0.12259 -0.16178292833385
         vertex -0.09 0.12259 -0.155884572681199
         vertex -0.078906806422034 0.12259 -0.16178292833385
      endloop
   endfacet
   facet normal 0 -1 0
      outer loop
         vertex 0.0789068064220339 0.12259 -0.16178292833385
         vertex -0.078906806422034 0.12259 -0.16178292833385
         vertex 0.0674291868148642 0.12259 -0.166893093822022
      endloop
   endfacet
   facet normal 0 -1 0
      outer loop
         vertex 0.0674291868148642 0.12259 -0.166893093822022
         vertex -0.078906806422034 0.12259 -0.16178292833385
         vertex -0.0674291868148642 0.12259 -0.166893093822022
      endloop
   endfacet
   facet normal 0 -1 0
      outer loop
         vertex 0.0674291868148642 0.12259 -0.166893093822022
         vertex -0.0674291868148642 0.12259 -0.166893093822022
         vertex 0.0556230589874905 0.12259 -0.171190172933128
      endloop
   endfacet
   facet normal 0 -1 0
      outer loop
         vertex 0.0556230589874905 0.12259 -0.171190172933128
         vertex -0.0674291868148642 0.12259 -0.166893093822022
         vertex -0.0556230589874905 0.12259 -0.171190172933128
      endloop
   endfacet
   facet normal 0 -1 0
      outer loop
         vertex 0.0556230589874905 0.12259 -0.171190172933128
         vertex -0.0556230589874905 0.12259 -0.171190172933128
         vertex 0.0435459412079402 0.12259 -0.174653230729679
      endloop
   endfacet
   facet normal 0 -1 0
      outer loop
         vertex 0.0435459412079402 0.12259 -0.174653230729679
         vertex -0.0556230589874905 0.12259 -0.171190172933128
         vertex -0.0435459412079402 0.12259 -0.174653230729679
      endloop
   endfacet
   facet normal 0 -1 0
      outer loop
         vertex 0.0435459412079402 0.12259 -0.174653230729679
         vertex -0.0435459412079402 0.12259 -0.174653230729679
         vertex 0.0312566719800474 0.12259 -0.177265395542197
      endloop
   endfacet
   facet normal 0 -1 0
      outer loop
         vertex 0.0312566719800474 0.12259 -0.177265395542197
         vertex -0.0435459412079402 0.12259 -0.174653230729679
         vertex -0.0312566719800474 0.12259 -0.177265395542197
      endloop
   endfacet
   facet normal 0 -1 0
      outer loop
         vertex 0.0312566719800474 0.12259 -0.177265395542197
         vertex -0.0312566719800474 0.12259 -0.177265395542197
         vertex 0.0188151233881776 0.12259 -0.179013941166289
      endloop
   endfacet
   facet normal 0 -1 0
      outer loop
         vertex 0.0188151233881776 0.12259 -0.179013941166289
         vertex -0.0312566719800474 0.12259 -0.177265395542197
         vertex -0.0188151233881776 0.12259 -0.179013941166289
      endloop
   endfacet
   facet normal 0 -1 0
      outer loop
         vertex 0.0188151233881776 0.12259 -0.179013941166289
         vertex -0.0188151233881776 0.12259 -0.179013941166289
         vertex 0.00628190940645025 0.12259 -0.179890348863437
      endloop
   endfacet
   facet normal 0 -1 0
      outer loop
         vertex 0.00628190940645025 0.12259 -0.179890348863437
         vertex -0.0188151233881776 0.12259 -0.179013941166289
         vertex -0.00628190940645011 0.12259 -0.179890348863437
      endloop
   endfacet
   facet normal 0 1 0
      outer loop
         vertex 0.00628190940645025 0.34259 -0.179890348863437
         vertex -0.00628190940645011 0.34259 -0.179890348863437
         vertex 0.0188151233881776 0.34259 -0.179013941166289
      endloop
   endfacet
   facet normal 0 1 0
      outer loop
         vertex 0.0188151233881776 0.34259 -0.179013941166289
         vertex -0.00628190940645011 0.34259 -0.179890348863437
         vertex -0.0188151233881776 0.34259 -0.179013941166289
      endloop
   endfacet
   facet normal 0 1 0
      outer loop
         vertex 0.0188151233881776 0.34259 -0.179013941166289
         vertex -0.0188151233881776 0.34259 -0.179013941166289
         vertex 0.0312566719800474 0.34259 -0.177265395542197
      endloop
   endfacet
   facet normal 0 1 0
      outer loop
         vertex 0.0312566719800474 0.34259 -0.177265395542197
         vertex -0.0188151233881776 0.34259 -0.179013941166289
         vertex -0.0312566719800474 0.34259 -0.177265395542197
      endloop
   endfacet
   facet normal 0 1 0
      outer loop
         vertex 0.0312566719800474 0.34259 -0.177265395542197
         vertex -0.0312566719800474 0.34259 -0.177265395542197
         vertex 0.0435459412079402 0.34259 -0.174653230729679
      endloop
   endfacet
   facet normal 0 1 0
      outer loop
         vertex 0.0435459412079402 0.34259 -0.174653230729679
         vertex -0.0312566719800474 0.34259 -0.177265395542197
         vertex -0.0435459412079402 0.34259 -0.174653230729679
      endloop
   endfacet
   facet normal 0 1 0
      outer loop
         vertex 0.0435459412079402 0.34259 -0.174653230729679
         vertex -0.0435459412079402 0.34259 -0.174653230729679
         vertex 0.0556230589874905 0.34259 -0.171190172933128
      endloop
   endfacet
   facet normal 0 1 0
      outer loop
         vertex 0.0556230589874905 0.34259 -0.171190172933128
         vertex -0.0435459412079402 0.34259 -0.174653230729679
         vertex -0.0556230589874905 0.34259 -0.171190172933128
      endloop
   endfacet
   facet normal 0 1 0
      outer loop
         vertex 0.0556230589874905 0.34259 -0.171190172933128
         vertex -0.0556230589874905 0.34259 -0.171190172933128
         vertex 0.0674291868148642 0.34259 -0.166893093822022
      endloop
   endfacet
   facet normal 0 1 0
      outer loop
         vertex 0.0674291868148642 0.34259 -0.166893093822022
         vertex -0.0556230589874905 0.34259 -0.171190172933128
         vertex -0.0674291868148642 0.34259 -0.166893093822022
      endloop
   endfacet
   facet normal 0 1 0
      outer loop
         vertex 0.0674291868148642 0.34259 -0.166893093822022
         vertex -0.0674291868148642 0.34259 -0.166893093822022
         vertex 0.0789068064220339 0.34259 -0.16178292833385
      endloop
   endfacet
   facet normal 0 1 0
      outer loop
         vertex 0.0789068064220339 0.34259 -0.16178292833385
         vertex -0.0674291868148642 0.34259 -0.166893093822022
         vertex -0.078906806422034 0.34259 -0.16178292833385
      endloop
   endfacet
   facet normal 0 1 0
      outer loop
         vertex 0.0789068064220339 0.34259 -0.16178292833385
         vertex -0.078906806422034 0.34259 -0.16178292833385
         vertex 0.09 0.34259 -0.155884572681199
      endloop
   endfacet
   facet normal 0 1 0
      outer loop
         vertex 0.09 0.34259 -0.155884572681199
         vertex -0.078906806422034 0.34259 -0.16178292833385
         vertex -0.09 0.34259 -0.155884572681199
      endloop
   endfacet
   facet normal 0 1 0
      outer loop
         vertex 0.09 0.34259 -0.155884572681199
         vertex -0.09 0.34259 -0.155884572681199
         vertex 0.100654722624734 0.34259 -0.149226763059907
      endloop
   endfacet
   facet normal 0 1 0
      outer loop
         vertex 0.100654722624734 0.34259 -0.149226763059907
         vertex -0.09 0.34259 -0.155884572681199
         vertex -0.100654722624734 0.34259 -0.149226763059908
      endloop
   endfacet
   facet normal 0 1 0
      outer loop
         vertex 0.100654722624734 0.34259 -0.149226763059907
         vertex -0.100654722624734 0.34259 -0.149226763059908
         vertex 0.110819065558619 0.34259 -0.14184193564921
      endloop
   endfacet
   facet normal 0 1 0
      outer loop
         vertex 0.110819065558619 0.34259 -0.14184193564921
         vertex -0.100654722624734 0.34259 -0.149226763059908
         vertex -0.110819065558618 0.34259 -0.14184193564921
      endloop
   endfacet
   facet normal 0 1 0
      outer loop
         vertex 0.110819065558619 0.34259 -0.14184193564921
         vertex -0.110819065558618 0.34259 -0.14184193564921
         vertex 0.120443509144594 0.34259 -0.133766068585931
      endloop
   endfacet
   facet normal 0 1 0
      outer loop
         vertex 0.120443509144594 0.34259 -0.133766068585931
         vertex -0.110819065558618 0.34259 -0.14184193564921
         vertex -0.120443509144594 0.34259 -0.133766068585931
      endloop
   endfacet
   facet normal 0 1 0
      outer loop
         vertex 0.120443509144594 0.34259 -0.133766068585931
         vertex -0.120443509144594 0.34259 -0.133766068585931
         vertex 0.129481164060957 0.34259 -0.12503850668262
      endloop
   endfacet
   facet normal 0 1 0
      outer loop
         vertex 0.129481164060957 0.34259 -0.12503850668262
         vertex -0.120443509144594 0.34259 -0.133766068585931
         vertex -0.129481164060957 0.34259 -0.12503850668262
      endloop
   endfacet
   facet normal 0 1 0
      outer loop
         vertex 0.129481164060957 0.34259 -0.12503850668262
         vertex -0.129481164060957 0.34259 -0.12503850668262
         vertex 0.137887999761416 0.34259 -0.115701769743577
      endloop
   endfacet
   facet normal 0 1 0
      outer loop
         vertex 0.137887999761416 0.34259 -0.115701769743577
         vertex -0.129481164060957 0.34259 -0.12503850668262
         vertex -0.137887999761416 0.34259 -0.115701769743577
      endloop
   endfacet
   facet normal 0 1 0
      outer loop
         vertex 0.137887999761416 0.34259 -0.115701769743577
         vertex -0.137887999761416 0.34259 -0.115701769743577
         vertex 0.145623058987491 0.34259 -0.105801345412645
      endloop
   endfacet
   facet normal 0 1 0
      outer loop
         vertex 0.145623058987491 0.34259 -0.105801345412645
         vertex -0.137887999761416 0.34259 -0.115701769743577
         vertex -0.145623058987491 0.34259 -0.105801345412645
      endloop
   endfacet
   facet normal 0 1 0
      outer loop
         vertex 0.145623058987491 0.34259 -0.105801345412645
         vertex -0.145623058987491 0.34259 -0.105801345412645
         vertex 0.152648657308157 0.34259 -0.0953854675619769
      endloop
   endfacet
   facet normal 0 1 0
      outer loop
         vertex 0.152648657308157 0.34259 -0.0953854675619769
         vertex -0.145623058987491 0.34259 -0.105801345412645
         vertex -0.152648657308157 0.34259 -0.0953854675619769
      endloop
   endfacet
   facet normal 0 1 0
      outer loop
         vertex 0.152648657308157 0.34259 -0.0953854675619769
         vertex -0.152648657308157 0.34259 -0.0953854675619769
         vertex 0.158930566714607 0.34259 -0.0845048813014603
      endloop
   endfacet
   facet normal 0 1 0
      outer loop
         vertex 0.158930566714607 0.34259 -0.0845048813014603
         vertex -0.152648657308157 0.34259 -0.0953854675619769
         vertex -0.158930566714607 0.34259 -0.0845048813014604
      endloop
   endfacet
   facet normal 0 1 0
      outer loop
         vertex 0.158930566714607 0.34259 -0.0845048813014603
         vertex -0.158930566714607 0.34259 -0.0845048813014604
         vertex 0.164438182375668 0.34259 -0.073212595753644
      endloop
   endfacet
   facet normal 0 1 0
      outer loop
         vertex 0.164438182375668 0.34259 -0.073212595753644
         vertex -0.158930566714607 0.34259 -0.0845048813014604
         vertex -0.164438182375668 0.34259 -0.073212595753644
      endloop
   endfacet
   facet normal 0 1 0
      outer loop
         vertex 0.164438182375668 0.34259 -0.073212595753644
         vertex -0.164438182375668 0.34259 -0.073212595753644
         vertex 0.169144671741463 0.34259 -0.0615636257986203
      endloop
   endfacet
   facet normal 0 1 0
      outer loop
         vertex 0.169144671741463 0.34259 -0.0615636257986203
         vertex -0.164438182375668 0.34259 -0.073212595753644
         vertex -0.169144671741463 0.34259 -0.0615636257986204
      endloop
   endfacet
   facet normal 0 1 0
      outer loop
         vertex 0.169144671741463 0.34259 -0.0615636257986203
         vertex -0.169144671741463 0.34259 -0.0615636257986204
         vertex 0.173027105268897 0.34259 -0.0496147240470598
      endloop
   endfacet
   facet normal 0 1 0
      outer loop
         vertex 0.173027105268897 0.34259 -0.0496147240470598
         vertex -0.169144671741463 0.34259 -0.0615636257986204
         vertex -0.173027105268897 0.34259 -0.0496147240470598
      endloop
   endfacet
   facet normal 0 1 0
      outer loop
         vertex 0.173027105268897 0.34259 -0.0496147240470598
         vertex -0.173027105268897 0.34259 -0.0496147240470598
         vertex 0.176066568132085 0.34259 -0.0374241043471968
      endloop
   endfacet
   facet normal 0 1 0
      outer loop
         vertex 0.176066568132085 0.34259 -0.0374241043471968
         vertex -0.173027105268897 0.34259 -0.0496147240470598
         vertex -0.176066568132085 0.34259 -0.0374241043471967
      endloop
   endfacet
   facet normal 0 1 0
      outer loop
         vertex 0.176066568132085 0.34259 -0.0374241043471968
         vertex -0.176066568132085 0.34259 -0.0374241043471967
         vertex 0.178248252373483 0.34259 -0.0250511581728118
      endloop
   endfacet
   facet normal 0 1 0
      outer loop
         vertex 0.178248252373483 0.34259 -0.0250511581728118
         vertex -0.176066568132085 0.34259 -0.0374241043471967
         vertex -0.178248252373483 0.34259 -0.0250511581728118
      endloop
   endfacet
   facet normal 0 1 0
      outer loop
         vertex 0.178248252373483 0.34259 -0.0250511581728118
         vertex -0.178248252373483 0.34259 -0.0250511581728118
         vertex 0.179561529046768 0.34259 -0.0125561652739426
      endloop
   endfacet
   facet normal 0 1 0
      outer loop
         vertex 0.179561529046768 0.34259 -0.0125561652739426
         vertex -0.178248252373483 0.34259 -0.0250511581728118
         vertex -0.179561529046768 0.34259 -0.0125561652739426
      endloop
   endfacet
   facet normal 0 1 0
      outer loop
         vertex 0.179561529046768 0.34259 -0.0125561652739426
         vertex -0.179561529046768 0.34259 -0.0125561652739426
         vertex 0.18 0.34259 2.20436423846524E-17
      endloop
   endfacet
   facet normal 0 1 0
      outer loop
         vertex 0.18 0.34259 2.20436423846524E-17
         vertex -0.179561529046768 0.34259 -0.0125561652739426
         vertex -0.18 0.34259 0
      endloop
   endfacet
   facet normal 0 1 0
      outer loop
         vertex 0.18 0.34259 2.20436423846524E-17
         vertex -0.18 0.34259 0
         vertex 0.179561529046768 0.34259 0.0125561652739426
      endloop
   endfacet
   facet normal 0 1 0
      outer loop
         vertex 0.179561529046768 0.34259 0.0125561652739426
         vertex -0.18 0.34259 0
         vertex -0.179561529046768 0.34259 0.0125561652739426
      endloop
   endfacet
   facet normal 0 1 0
      outer loop
         vertex 0.179561529046768 0.34259 0.0125561652739426
         vertex -0.179561529046768 0.34259 0.0125561652739426
         vertex 0.178248252373483 0.34259 0.0250511581728118
      endloop
   endfacet
   facet normal 0 1 0
      outer loop
         vertex 0.178248252373483 0.34259 0.0250511581728118
         vertex -0.179561529046768 0.34259 0.0125561652739426
         vertex -0.178248252373483 0.34259 0.0250511581728117
      endloop
   endfacet
   facet normal 0 1 0
      outer loop
         vertex 0.178248252373483 0.34259 0.0250511581728118
         vertex -0.178248252373483 0.34259 0.0250511581728117
         vertex 0.176066568132085 0.34259 0.0374241043471967
      endloop
   endfacet
   facet normal 0 1 0
      outer loop
         vertex 0.176066568132085 0.34259 0.0374241043471967
         vertex -0.178248252373483 0.34259 0.0250511581728117
         vertex -0.176066568132085 0.34259 0.0374241043471967
      endloop
   endfacet
   facet normal 0 1 0
      outer loop
         vertex 0.176066568132085 0.34259 0.0374241043471967
         vertex -0.176066568132085 0.34259 0.0374241043471967
         vertex 0.173027105268897 0.34259 0.0496147240470599
      endloop
   endfacet
   facet normal 0 1 0
      outer loop
         vertex 0.173027105268897 0.34259 0.0496147240470599
         vertex -0.176066568132085 0.34259 0.0374241043471967
         vertex -0.173027105268897 0.34259 0.0496147240470598
      endloop
   endfacet
   facet normal 0 1 0
      outer loop
         vertex 0.173027105268897 0.34259 0.0496147240470599
         vertex -0.173027105268897 0.34259 0.0496147240470598
         vertex 0.169144671741463 0.34259 0.0615636257986204
      endloop
   endfacet
   facet normal 0 1 0
      outer loop
         vertex 0.169144671741463 0.34259 0.0615636257986204
         vertex -0.173027105268897 0.34259 0.0496147240470598
         vertex -0.169144671741463 0.34259 0.0615636257986204
      endloop
   endfacet
   facet normal 0 1 0
      outer loop
         vertex 0.169144671741463 0.34259 0.0615636257986204
         vertex -0.169144671741463 0.34259 0.0615636257986204
         vertex 0.164438182375668 0.34259 0.0732125957536441
      endloop
   endfacet
   facet normal 0 1 0
      outer loop
         vertex 0.164438182375668 0.34259 0.0732125957536441
         vertex -0.169144671741463 0.34259 0.0615636257986204
         vertex -0.164438182375668 0.34259 0.073212595753644
      endloop
   endfacet
   facet normal 0 1 0
      outer loop
         vertex 0.164438182375668 0.34259 0.0732125957536441
         vertex -0.164438182375668 0.34259 0.073212595753644
         vertex 0.158930566714607 0.34259 0.0845048813014603
      endloop
   endfacet
   facet normal 0 1 0
      outer loop
         vertex 0.158930566714607 0.34259 0.0845048813014603
         vertex -0.164438182375668 0.34259 0.073212595753644
         vertex -0.158930566714607 0.34259 0.0845048813014603
      endloop
   endfacet
   facet normal 0 1 0
      outer loop
         vertex 0.158930566714607 0.34259 0.0845048813014603
         vertex -0.158930566714607 0.34259 0.0845048813014603
         vertex 0.152648657308157 0.34259 0.0953854675619769
      endloop
   endfacet
   facet normal 0 1 0
      outer loop
         vertex 0.152648657308157 0.34259 0.0953854675619769
         vertex -0.158930566714607 0.34259 0.0845048813014603
         vertex -0.152648657308157 0.34259 0.0953854675619769
      endloop
   endfacet
   facet normal 0 1 0
      outer loop
         vertex 0.152648657308157 0.34259 0.0953854675619769
         vertex -0.152648657308157 0.34259 0.0953854675619769
         vertex 0.145623058987491 0.34259 0.105801345412645
      endloop
   endfacet
   facet normal 0 1 0
      outer loop
         vertex 0.145623058987491 0.34259 0.105801345412645
         vertex -0.152648657308157 0.34259 0.0953854675619769
         vertex -0.145623058987491 0.34259 0.105801345412645
      endloop
   endfacet
   facet normal 0 1 0
      outer loop
         vertex 0.145623058987491 0.34259 0.105801345412645
         vertex -0.145623058987491 0.34259 0.105801345412645
         vertex 0.137887999761416 0.34259 0.115701769743577
      endloop
   endfacet
   facet normal 0 1 0
      outer loop
         vertex 0.137887999761416 0.34259 0.115701769743577
         vertex -0.145623058987491 0.34259 0.105801345412645
         vertex -0.137887999761416 0.34259 0.115701769743577
      endloop
   endfacet
   facet normal 0 1 0
      outer loop
         vertex 0.137887999761416 0.34259 0.115701769743577
         vertex -0.137887999761416 0.34259 0.115701769743577
         vertex 0.129481164060957 0.34259 0.12503850668262
      endloop
   endfacet
   facet normal 0 1 0
      outer loop
         vertex 0.129481164060957 0.34259 0.12503850668262
         vertex -0.137887999761416 0.34259 0.115701769743577
         vertex -0.129481164060957 0.34259 0.125038506682619
      endloop
   endfacet
   facet normal 0 1 0
      outer loop
         vertex 0.129481164060957 0.34259 0.12503850668262
         vertex -0.129481164060957 0.34259 0.125038506682619
         vertex 0.120443509144594 0.34259 0.133766068585931
      endloop
   endfacet
   facet normal 0 1 0
      outer loop
         vertex 0.120443509144594 0.34259 0.133766068585931
         vertex -0.129481164060957 0.34259 0.125038506682619
         vertex -0.120443509144594 0.34259 0.133766068585931
      endloop
   endfacet
   facet normal 0 1 0
      outer loop
         vertex 0.120443509144594 0.34259 0.133766068585931
         vertex -0.120443509144594 0.34259 0.133766068585931
         vertex 0.110819065558618 0.34259 0.14184193564921
      endloop
   endfacet
   facet normal 0 1 0
      outer loop
         vertex 0.110819065558618 0.34259 0.14184193564921
         vertex -0.120443509144594 0.34259 0.133766068585931
         vertex -0.110819065558618 0.34259 0.14184193564921
      endloop
   endfacet
   facet normal 0 1 0
      outer loop
         vertex 0.110819065558618 0.34259 0.14184193564921
         vertex -0.110819065558618 0.34259 0.14184193564921
         vertex 0.100654722624734 0.34259 0.149226763059907
      endloop
   endfacet
   facet normal 0 1 0
      outer loop
         vertex 0.100654722624734 0.34259 0.149226763059907
         vertex -0.110819065558618 0.34259 0.14184193564921
         vertex -0.100654722624734 0.34259 0.149226763059907
      endloop
   endfacet
   facet normal 0 1 0
      outer loop
         vertex 0.100654722624734 0.34259 0.149226763059907
         vertex -0.100654722624734 0.34259 0.149226763059907
         vertex 0.09 0.34259 0.155884572681199
      endloop
   endfacet
   facet normal 0 1 0
      outer loop
         vertex 0.09 0.34259 0.155884572681199
         vertex -0.100654722624734 0.34259 0.149226763059907
         vertex -0.09 0.34259 0.155884572681199
      endloop
   endfacet
   facet normal 0 1 0
      outer loop
         vertex 0.09 0.34259 0.155884572681199
         vertex -0.09 0.34259 0.155884572681199
         vertex 0.0789068064220339 0.34259 0.16178292833385
      endloop
   endfacet
   facet normal 0 1 0
      outer loop
         vertex 0.0789068064220339 0.34259 0.16178292833385
         vertex -0.09 0.34259 0.155884572681199
         vertex -0.078906806422034 0.34259 0.16178292833385
      endloop
   endfacet
   facet normal 0 1 0
      outer loop
         vertex 0.0789068064220339 0.34259 0.16178292833385
         vertex -0.078906806422034 0.34259 0.16178292833385
         vertex 0.0674291868148641 0.34259 0.166893093822022
      endloop
   endfacet
   facet normal 0 1 0
      outer loop
         vertex 0.0674291868148641 0.34259 0.166893093822022
         vertex -0.078906806422034 0.34259 0.16178292833385
         vertex -0.0674291868148642 0.34259 0.166893093822022
      endloop
   endfacet
   facet normal 0 1 0
      outer loop
         vertex 0.0674291868148641 0.34259 0.166893093822022
         vertex -0.0674291868148642 0.34259 0.166893093822022
         vertex 0.0556230589874905 0.34259 0.171190172933128
      endloop
   endfacet
   facet normal 0 1 0
      outer loop
         vertex 0.0556230589874905 0.34259 0.171190172933128
         vertex -0.0674291868148642 0.34259 0.166893093822022
         vertex -0.0556230589874905 0.34259 0.171190172933128
      endloop
   endfacet
   facet normal 0 1 0
      outer loop
         vertex 0.0556230589874905 0.34259 0.171190172933128
         vertex -0.0556230589874905 0.34259 0.171190172933128
         vertex 0.0435459412079402 0.34259 0.174653230729679
      endloop
   endfacet
   facet normal 0 1 0
      outer loop
         vertex 0.0435459412079402 0.34259 0.174653230729679
         vertex -0.0556230589874905 0.34259 0.171190172933128
         vertex -0.0435459412079402 0.34259 0.174653230729679
      endloop
   endfacet
   facet normal 0 1 0
      outer loop
         vertex 0.0435459412079402 0.34259 0.174653230729679
         vertex -0.0435459412079402 0.34259 0.174653230729679
         vertex 0.0312566719800475 0.34259 0.177265395542197
      endloop
   endfacet
   facet normal 0 1 0
      outer loop
         vertex 0.0312566719800475 0.34259 0.177265395542197
         vertex -0.0435459412079402 0.34259 0.174653230729679
         vertex -0.0312566719800475 0.34259 0.177265395542197
      endloop
   endfacet
   facet normal 0 1 0
      outer loop
         vertex 0.0312566719800475 0.34259 0.177265395542197
         vertex -0.0312566719800475 0.34259 0.177265395542197
         vertex 0.0188151233881776 0.34259 0.179013941166289
      endloop
   endfacet
   facet normal 0 1 0
      outer loop
         vertex 0.0188151233881776 0.34259 0.179013941166289
         vertex -0.0312566719800475 0.34259 0.177265395542197
         vertex -0.0188151233881777 0.34259 0.179013941166289
      endloop
   endfacet
   facet normal 0 1 0
      outer loop
         vertex 0.0188151233881776 0.34259 0.179013941166289
         vertex -0.0188151233881777 0.34259 0.179013941166289
         vertex 0.00628190940645017 0.34259 0.179890348863437
      endloop
   endfacet
   facet normal 0 1 0
      outer loop
         vertex 0.00628190940645017 0.34259 0.179890348863437
         vertex -0.0188151233881777 0.34259 0.179013941166289
         vertex -0.00628190940645019 0.34259 0.179890348863437
      endloop
   endfacet
   facet normal 0.999390827019096 0 0.0348994967025026
      outer loop
         vertex 0.179561529046768 0.34259 0.0125561652739426
         vertex 0.18 0.12259 2.20436423846524E-17
         vertex 0.18 0.34259 2.20436423846524E-17
      endloop
   endfacet
   facet normal 0.999390827019096 0 -0.0348994967025025
      outer loop
         vertex 0.18 0.34259 2.20436423846524E-17
         vertex 0.18 0.12259 2.20436423846524E-17
         vertex 0.179561529046768 0.12259 -0.0125561652739426
      endloop
   endfacet
   facet normal 0.999390827019096 0 -0.0348994967025025
      outer loop
         vertex 0.18 0.34259 2.20436423846524E-17
         vertex 0.179561529046768 0.12259 -0.0125561652739426
         vertex 0.179561529046768 0.34259 -0.0125561652739426
      endloop
   endfacet
   facet normal 0.994521895368273 0 -0.104528463267653
      outer loop
         vertex 0.179561529046768 0.34259 -0.0125561652739426
         vertex 0.179561529046768 0.12259 -0.0125561652739426
         vertex 0.178248252373483 0.12259 -0.0250511581728118
      endloop
   endfacet
   facet normal 0.994521895368273 0 -0.104528463267653
      outer loop
         vertex 0.179561529046768 0.34259 -0.0125561652739426
         vertex 0.178248252373483 0.12259 -0.0250511581728118
         vertex 0.178248252373483 0.34259 -0.0250511581728118
      endloop
   endfacet
   facet normal 0.984807753012208 0 -0.17364817766693
      outer loop
         vertex 0.178248252373483 0.34259 -0.0250511581728118
         vertex 0.178248252373483 0.12259 -0.0250511581728118
         vertex 0.176066568132085 0.12259 -0.0374241043471968
      endloop
   endfacet
   facet normal 0.984807753012208 0 -0.17364817766693
      outer loop
         vertex 0.178248252373483 0.34259 -0.0250511581728118
         vertex 0.176066568132085 0.12259 -0.0374241043471968
         vertex 0.176066568132085 0.34259 -0.0374241043471968
      endloop
   endfacet
   facet normal 0.970295726275996 0 -0.241921895599669
      outer loop
         vertex 0.176066568132085 0.34259 -0.0374241043471968
         vertex 0.176066568132085 0.12259 -0.0374241043471968
         vertex 0.173027105268897 0.12259 -0.0496147240470598
      endloop
   endfacet
   facet normal 0.970295726275996 0 -0.241921895599669
      outer loop
         vertex 0.176066568132085 0.34259 -0.0374241043471968
         vertex 0.173027105268897 0.12259 -0.0496147240470598
         vertex 0.173027105268897 0.34259 -0.0496147240470598
      endloop
   endfacet
   facet normal 0.951056516295154 0 -0.309016994374947
      outer loop
         vertex 0.173027105268897 0.34259 -0.0496147240470598
         vertex 0.173027105268897 0.12259 -0.0496147240470598
         vertex 0.169144671741463 0.12259 -0.0615636257986203
      endloop
   endfacet
   facet normal 0.951056516295154 0 -0.309016994374947
      outer loop
         vertex 0.173027105268897 0.34259 -0.0496147240470598
         vertex 0.169144671741463 0.12259 -0.0615636257986203
         vertex 0.169144671741463 0.34259 -0.0615636257986203
      endloop
   endfacet
   facet normal 0.927183854566788 0 -0.37460659341591
      outer loop
         vertex 0.169144671741463 0.34259 -0.0615636257986203
         vertex 0.169144671741463 0.12259 -0.0615636257986203
         vertex 0.164438182375668 0.12259 -0.073212595753644
      endloop
   endfacet
   facet normal 0.927183854566788 0 -0.37460659341591
      outer loop
         vertex 0.169144671741463 0.34259 -0.0615636257986203
         vertex 0.164438182375668 0.12259 -0.073212595753644
         vertex 0.164438182375668 0.34259 -0.073212595753644
      endloop
   endfacet
   facet normal 0.898794046299166 0 -0.438371146789079
      outer loop
         vertex 0.164438182375668 0.34259 -0.073212595753644
         vertex 0.164438182375668 0.12259 -0.073212595753644
         vertex 0.158930566714607 0.12259 -0.0845048813014603
      endloop
   endfacet
   facet normal 0.898794046299166 0 -0.438371146789079
      outer loop
         vertex 0.164438182375668 0.34259 -0.073212595753644
         vertex 0.158930566714607 0.12259 -0.0845048813014603
         vertex 0.158930566714607 0.34259 -0.0845048813014603
      endloop
   endfacet
   facet normal 0.866025403784439 0 -0.5
      outer loop
         vertex 0.158930566714607 0.34259 -0.0845048813014603
         vertex 0.158930566714607 0.12259 -0.0845048813014603
         vertex 0.152648657308157 0.12259 -0.0953854675619769
      endloop
   endfacet
   facet normal 0.866025403784439 0 -0.5
      outer loop
         vertex 0.158930566714607 0.34259 -0.0845048813014603
         vertex 0.152648657308157 0.12259 -0.0953854675619769
         vertex 0.152648657308157 0.34259 -0.0953854675619769
      endloop
   endfacet
   facet normal 0.829037572555041 0 -0.559192903470748
      outer loop
         vertex 0.152648657308157 0.34259 -0.0953854675619769
         vertex 0.152648657308157 0.12259 -0.0953854675619769
         vertex 0.145623058987491 0.12259 -0.105801345412645
      endloop
   endfacet
   facet normal 0.829037572555041 0 -0.559192903470748
      outer loop
         vertex 0.152648657308157 0.34259 -0.0953854675619769
         vertex 0.145623058987491 0.12259 -0.105801345412645
         vertex 0.145623058987491 0.34259 -0.105801345412645
      endloop
   endfacet
   facet normal 0.788010753606723 0 -0.615661475325657
      outer loop
         vertex 0.145623058987491 0.34259 -0.105801345412645
         vertex 0.145623058987491 0.12259 -0.105801345412645
         vertex 0.137887999761416 0.12259 -0.115701769743577
      endloop
   endfacet
   facet normal 0.788010753606723 0 -0.615661475325657
      outer loop
         vertex 0.145623058987491 0.34259 -0.105801345412645
         vertex 0.137887999761416 0.12259 -0.115701769743577
         vertex 0.137887999761416 0.34259 -0.115701769743577
      endloop
   endfacet
   facet normal 0.743144825477393 0 -0.66913060635886
      outer loop
         vertex 0.137887999761416 0.34259 -0.115701769743577
         vertex 0.137887999761416 0.12259 -0.115701769743577
         vertex 0.129481164060957 0.12259 -0.12503850668262
      endloop
   endfacet
   facet normal 0.743144825477393 0 -0.66913060635886
      outer loop
         vertex 0.137887999761416 0.34259 -0.115701769743577
         vertex 0.129481164060957 0.12259 -0.12503850668262
         vertex 0.129481164060957 0.34259 -0.12503850668262
      endloop
   endfacet
   facet normal 0.694658370458997 0 -0.719339800338652
      outer loop
         vertex 0.129481164060957 0.34259 -0.12503850668262
         vertex 0.129481164060957 0.12259 -0.12503850668262
         vertex 0.120443509144594 0.12259 -0.133766068585931
      endloop
   endfacet
   facet normal 0.694658370458997 0 -0.719339800338652
      outer loop
         vertex 0.129481164060957 0.34259 -0.12503850668262
         vertex 0.120443509144594 0.12259 -0.133766068585931
         vertex 0.120443509144594 0.34259 -0.133766068585931
      endloop
   endfacet
   facet normal 0.64278760968654 0 -0.766044443118977
      outer loop
         vertex 0.120443509144594 0.34259 -0.133766068585931
         vertex 0.120443509144594 0.12259 -0.133766068585931
         vertex 0.110819065558619 0.12259 -0.14184193564921
      endloop
   endfacet
   facet normal 0.64278760968654 0 -0.766044443118977
      outer loop
         vertex 0.120443509144594 0.34259 -0.133766068585931
         vertex 0.110819065558619 0.12259 -0.14184193564921
         vertex 0.110819065558619 0.34259 -0.14184193564921
      endloop
   endfacet
   facet normal 0.587785252292473 0 -0.809016994374948
      outer loop
         vertex 0.110819065558619 0.34259 -0.14184193564921
         vertex 0.110819065558619 0.12259 -0.14184193564921
         vertex 0.100654722624734 0.12259 -0.149226763059907
      endloop
   endfacet
   facet normal 0.587785252292473 0 -0.809016994374948
      outer loop
         vertex 0.110819065558619 0.34259 -0.14184193564921
         vertex 0.100654722624734 0.12259 -0.149226763059907
         vertex 0.100654722624734 0.34259 -0.149226763059907
      endloop
   endfacet
   facet normal 0.529919264233207 0 -0.848048096156425
      outer loop
         vertex 0.100654722624734 0.34259 -0.149226763059907
         vertex 0.100654722624734 0.12259 -0.149226763059907
         vertex 0.09 0.12259 -0.155884572681199
      endloop
   endfacet
   facet normal 0.529919264233207 0 -0.848048096156425
      outer loop
         vertex 0.100654722624734 0.34259 -0.149226763059907
         vertex 0.09 0.12259 -0.155884572681199
         vertex 0.09 0.34259 -0.155884572681199
      endloop
   endfacet
   facet normal 0.469471562785889 0 -0.882947592858928
      outer loop
         vertex 0.09 0.34259 -0.155884572681199
         vertex 0.09 0.12259 -0.155884572681199
         vertex 0.0789068064220339 0.12259 -0.16178292833385
      endloop
   endfacet
   facet normal 0.469471562785889 0 -0.882947592858928
      outer loop
         vertex 0.09 0.34259 -0.155884572681199
         vertex 0.0789068064220339 0.12259 -0.16178292833385
         vertex 0.0789068064220339 0.34259 -0.16178292833385
      endloop
   endfacet
   facet normal 0.406736643075801 0 -0.9135454576426
      outer loop
         vertex 0.0789068064220339 0.34259 -0.16178292833385
         vertex 0.0789068064220339 0.12259 -0.16178292833385
         vertex 0.0674291868148642 0.12259 -0.166893093822022
      endloop
   endfacet
   facet normal 0.406736643075801 0 -0.9135454576426
      outer loop
         vertex 0.0789068064220339 0.34259 -0.16178292833385
         vertex 0.0674291868148642 0.12259 -0.166893093822022
         vertex 0.0674291868148642 0.34259 -0.166893093822022
      endloop
   endfacet
   facet normal 0.34202014332567 0 -0.939692620785908
      outer loop
         vertex 0.0674291868148642 0.34259 -0.166893093822022
         vertex 0.0674291868148642 0.12259 -0.166893093822022
         vertex 0.0556230589874905 0.12259 -0.171190172933128
      endloop
   endfacet
   facet normal 0.34202014332567 0 -0.939692620785908
      outer loop
         vertex 0.0674291868148642 0.34259 -0.166893093822022
         vertex 0.0556230589874905 0.12259 -0.171190172933128
         vertex 0.0556230589874905 0.34259 -0.171190172933128
      endloop
   endfacet
   facet normal 0.275637355816996 0 -0.96126169593832
      outer loop
         vertex 0.0556230589874905 0.34259 -0.171190172933128
         vertex 0.0556230589874905 0.12259 -0.171190172933128
         vertex 0.0435459412079402 0.12259 -0.174653230729679
      endloop
   endfacet
   facet normal 0.275637355816996 0 -0.96126169593832
      outer loop
         vertex 0.0556230589874905 0.34259 -0.171190172933128
         vertex 0.0435459412079402 0.12259 -0.174653230729679
         vertex 0.0435459412079402 0.34259 -0.174653230729679
      endloop
   endfacet
   facet normal 0.207911690817761 0 -0.978147600733805
      outer loop
         vertex 0.0435459412079402 0.34259 -0.174653230729679
         vertex 0.0435459412079402 0.12259 -0.174653230729679
         vertex 0.0312566719800474 0.12259 -0.177265395542197
      endloop
   endfacet
   facet normal 0.207911690817761 0 -0.978147600733805
      outer loop
         vertex 0.0435459412079402 0.34259 -0.174653230729679
         vertex 0.0312566719800474 0.12259 -0.177265395542197
         vertex 0.0312566719800474 0.34259 -0.177265395542197
      endloop
   endfacet
   facet normal 0.139173100960065 0 -0.99026806874157
      outer loop
         vertex 0.0312566719800474 0.34259 -0.177265395542197
         vertex 0.0312566719800474 0.12259 -0.177265395542197
         vertex 0.0188151233881776 0.12259 -0.179013941166289
      endloop
   endfacet
   facet normal 0.139173100960065 0 -0.99026806874157
      outer loop
         vertex 0.0312566719800474 0.34259 -0.177265395542197
         vertex 0.0188151233881776 0.12259 -0.179013941166289
         vertex 0.0188151233881776 0.34259 -0.179013941166289
      endloop
   endfacet
   facet normal 0.069756473744126 0 -0.997564050259824
      outer loop
         vertex 0.0188151233881776 0.34259 -0.179013941166289
         vertex 0.0188151233881776 0.12259 -0.179013941166289
         vertex 0.00628190940645025 0.12259 -0.179890348863437
      endloop
   endfacet
   facet normal 0.069756473744126 0 -0.997564050259824
      outer loop
         vertex 0.0188151233881776 0.34259 -0.179013941166289
         vertex 0.00628190940645025 0.12259 -0.179890348863437
         vertex 0.00628190940645025 0.34259 -0.179890348863437
      endloop
   endfacet
   facet normal 0 0 -1
      outer loop
         vertex 0.00628190940645025 0.34259 -0.179890348863437
         vertex 0.00628190940645025 0.12259 -0.179890348863437
         vertex -0.00628190940645011 0.12259 -0.179890348863437
      endloop
   endfacet
   facet normal 0 0 -1
      outer loop
         vertex 0.00628190940645025 0.34259 -0.179890348863437
         vertex -0.00628190940645011 0.12259 -0.179890348863437
         vertex -0.00628190940645011 0.34259 -0.179890348863437
      endloop
   endfacet
   facet normal -0.0697564737441251 0 -0.997564050259824
      outer loop
         vertex -0.00628190940645011 0.34259 -0.179890348863437
         vertex -0.00628190940645011 0.12259 -0.179890348863437
         vertex -0.0188151233881776 0.12259 -0.179013941166289
      endloop
   endfacet
   facet normal -0.0697564737441251 0 -0.997564050259824
      outer loop
         vertex -0.00628190940645011 0.34259 -0.179890348863437
         vertex -0.0188151233881776 0.12259 -0.179013941166289
         vertex -0.0188151233881776 0.34259 -0.179013941166289
      endloop
   endfacet
   facet normal -0.139173100960065 0 -0.99026806874157
      outer loop
         vertex -0.0188151233881776 0.34259 -0.179013941166289
         vertex -0.0188151233881776 0.12259 -0.179013941166289
         vertex -0.0312566719800474 0.12259 -0.177265395542197
      endloop
   endfacet
   facet normal -0.139173100960065 0 -0.99026806874157
      outer loop
         vertex -0.0188151233881776 0.34259 -0.179013941166289
         vertex -0.0312566719800474 0.12259 -0.177265395542197
         vertex -0.0312566719800474 0.34259 -0.177265395542197
      endloop
   endfacet
   facet normal -0.207911690817761 0 -0.978147600733805
      outer loop
         vertex -0.0312566719800474 0.34259 -0.177265395542197
         vertex -0.0312566719800474 0.12259 -0.177265395542197
         vertex -0.0435459412079402 0.12259 -0.174653230729679
      endloop
   endfacet
   facet normal -0.207911690817761 0 -0.978147600733805
      outer loop
         vertex -0.0312566719800474 0.34259 -0.177265395542197
         vertex -0.0435459412079402 0.12259 -0.174653230729679
         vertex -0.0435459412079402 0.34259 -0.174653230729679
      endloop
   endfacet
   facet normal -0.275637355817 0 -0.961261695938319
      outer loop
         vertex -0.0435459412079402 0.34259 -0.174653230729679
         vertex -0.0435459412079402 0.12259 -0.174653230729679
         vertex -0.0556230589874905 0.12259 -0.171190172933128
      endloop
   endfacet
   facet normal -0.275637355817 0 -0.961261695938319
      outer loop
         vertex -0.0435459412079402 0.34259 -0.174653230729679
         vertex -0.0556230589874905 0.12259 -0.171190172933128
         vertex -0.0556230589874905 0.34259 -0.171190172933128
      endloop
   endfacet
   facet normal -0.342020143325668 0 -0.939692620785909
      outer loop
         vertex -0.0556230589874905 0.34259 -0.171190172933128
         vertex -0.0556230589874905 0.12259 -0.171190172933128
         vertex -0.0674291868148642 0.12259 -0.166893093822022
      endloop
   endfacet
   facet normal -0.342020143325668 0 -0.939692620785909
      outer loop
         vertex -0.0556230589874905 0.34259 -0.171190172933128
         vertex -0.0674291868148642 0.12259 -0.166893093822022
         vertex -0.0674291868148642 0.34259 -0.166893093822022
      endloop
   endfacet
   facet normal -0.4067366430758 0 -0.913545457642601
      outer loop
         vertex -0.0674291868148642 0.34259 -0.166893093822022
         vertex -0.0674291868148642 0.12259 -0.166893093822022
         vertex -0.078906806422034 0.12259 -0.16178292833385
      endloop
   endfacet
   facet normal -0.4067366430758 0 -0.913545457642601
      outer loop
         vertex -0.0674291868148642 0.34259 -0.166893093822022
         vertex -0.078906806422034 0.12259 -0.16178292833385
         vertex -0.078906806422034 0.34259 -0.16178292833385
      endloop
   endfacet
   facet normal -0.469471562785892 0 -0.882947592858926
      outer loop
         vertex -0.078906806422034 0.34259 -0.16178292833385
         vertex -0.078906806422034 0.12259 -0.16178292833385
         vertex -0.09 0.12259 -0.155884572681199
      endloop
   endfacet
   facet normal -0.469471562785892 0 -0.882947592858926
      outer loop
         vertex -0.078906806422034 0.34259 -0.16178292833385
         vertex -0.09 0.12259 -0.155884572681199
         vertex -0.09 0.34259 -0.155884572681199
      endloop
   endfacet
   facet normal -0.529919264233205 0 -0.848048096156426
      outer loop
         vertex -0.09 0.34259 -0.155884572681199
         vertex -0.09 0.12259 -0.155884572681199
         vertex -0.100654722624734 0.12259 -0.149226763059908
      endloop
   endfacet
   facet normal -0.529919264233205 0 -0.848048096156426
      outer loop
         vertex -0.09 0.34259 -0.155884572681199
         vertex -0.100654722624734 0.12259 -0.149226763059908
         vertex -0.100654722624734 0.34259 -0.149226763059908
      endloop
   endfacet
   facet normal -0.587785252292472 0 -0.809016994374949
      outer loop
         vertex -0.100654722624734 0.34259 -0.149226763059908
         vertex -0.100654722624734 0.12259 -0.149226763059908
         vertex -0.110819065558618 0.12259 -0.14184193564921
      endloop
   endfacet
   facet normal -0.587785252292472 0 -0.809016994374949
      outer loop
         vertex -0.100654722624734 0.34259 -0.149226763059908
         vertex -0.110819065558618 0.12259 -0.14184193564921
         vertex -0.110819065558618 0.34259 -0.14184193564921
      endloop
   endfacet
   facet normal -0.64278760968654 0 -0.766044443118977
      outer loop
         vertex -0.110819065558618 0.34259 -0.14184193564921
         vertex -0.110819065558618 0.12259 -0.14184193564921
         vertex -0.120443509144594 0.12259 -0.133766068585931
      endloop
   endfacet
   facet normal -0.64278760968654 0 -0.766044443118977
      outer loop
         vertex -0.110819065558618 0.34259 -0.14184193564921
         vertex -0.120443509144594 0.12259 -0.133766068585931
         vertex -0.120443509144594 0.34259 -0.133766068585931
      endloop
   endfacet
   facet normal -0.694658370458998 0 -0.71933980033865
      outer loop
         vertex -0.120443509144594 0.34259 -0.133766068585931
         vertex -0.120443509144594 0.12259 -0.133766068585931
         vertex -0.129481164060957 0.12259 -0.12503850668262
      endloop
   endfacet
   facet normal -0.694658370458998 0 -0.71933980033865
      outer loop
         vertex -0.120443509144594 0.34259 -0.133766068585931
         vertex -0.129481164060957 0.12259 -0.12503850668262
         vertex -0.129481164060957 0.34259 -0.12503850668262
      endloop
   endfacet
   facet normal -0.743144825477393 0 -0.669130606358859
      outer loop
         vertex -0.129481164060957 0.34259 -0.12503850668262
         vertex -0.129481164060957 0.12259 -0.12503850668262
         vertex -0.137887999761416 0.12259 -0.115701769743577
      endloop
   endfacet
   facet normal -0.743144825477393 0 -0.669130606358859
      outer loop
         vertex -0.129481164060957 0.34259 -0.12503850668262
         vertex -0.137887999761416 0.12259 -0.115701769743577
         vertex -0.137887999761416 0.34259 -0.115701769743577
      endloop
   endfacet
   facet normal -0.788010753606721 0 -0.61566147532566
      outer loop
         vertex -0.137887999761416 0.34259 -0.115701769743577
         vertex -0.137887999761416 0.12259 -0.115701769743577
         vertex -0.145623058987491 0.12259 -0.105801345412645
      endloop
   endfacet
   facet normal -0.788010753606721 0 -0.61566147532566
      outer loop
         vertex -0.137887999761416 0.34259 -0.115701769743577
         vertex -0.145623058987491 0.12259 -0.105801345412645
         vertex -0.145623058987491 0.34259 -0.105801345412645
      endloop
   endfacet
   facet normal -0.829037572555041 0 -0.559192903470748
      outer loop
         vertex -0.145623058987491 0.34259 -0.105801345412645
         vertex -0.145623058987491 0.12259 -0.105801345412645
         vertex -0.152648657308157 0.12259 -0.0953854675619769
      endloop
   endfacet
   facet normal -0.829037572555041 0 -0.559192903470748
      outer loop
         vertex -0.145623058987491 0.34259 -0.105801345412645
         vertex -0.152648657308157 0.12259 -0.0953854675619769
         vertex -0.152648657308157 0.34259 -0.0953854675619769
      endloop
   endfacet
   facet normal -0.866025403784439 0 -0.499999999999999
      outer loop
         vertex -0.152648657308157 0.34259 -0.0953854675619769
         vertex -0.152648657308157 0.12259 -0.0953854675619769
         vertex -0.158930566714607 0.12259 -0.0845048813014604
      endloop
   endfacet
   facet normal -0.866025403784439 0 -0.499999999999999
      outer loop
         vertex -0.152648657308157 0.34259 -0.0953854675619769
         vertex -0.158930566714607 0.12259 -0.0845048813014604
         vertex -0.158930566714607 0.34259 -0.0845048813014604
      endloop
   endfacet
   facet normal -0.898794046299167 0 -0.438371146789076
      outer loop
         vertex -0.158930566714607 0.34259 -0.0845048813014604
         vertex -0.158930566714607 0.12259 -0.0845048813014604
         vertex -0.164438182375668 0.12259 -0.073212595753644
      endloop
   endfacet
   facet normal -0.898794046299167 0 -0.438371146789076
      outer loop
         vertex -0.158930566714607 0.34259 -0.0845048813014604
         vertex -0.164438182375668 0.12259 -0.073212595753644
         vertex -0.164438182375668 0.34259 -0.073212595753644
      endloop
   endfacet
   facet normal -0.927183854566788 0 -0.374606593415912
      outer loop
         vertex -0.164438182375668 0.34259 -0.073212595753644
         vertex -0.164438182375668 0.12259 -0.073212595753644
         vertex -0.169144671741463 0.12259 -0.0615636257986204
      endloop
   endfacet
   facet normal -0.927183854566788 0 -0.374606593415912
      outer loop
         vertex -0.164438182375668 0.34259 -0.073212595753644
         vertex -0.169144671741463 0.12259 -0.0615636257986204
         vertex -0.169144671741463 0.34259 -0.0615636257986204
      endloop
   endfacet
   facet normal -0.951056516295153 0 -0.309016994374949
      outer loop
         vertex -0.169144671741463 0.34259 -0.0615636257986204
         vertex -0.169144671741463 0.12259 -0.0615636257986204
         vertex -0.173027105268897 0.12259 -0.0496147240470598
      endloop
   endfacet
   facet normal -0.951056516295153 0 -0.309016994374949
      outer loop
         vertex -0.169144671741463 0.34259 -0.0615636257986204
         vertex -0.173027105268897 0.12259 -0.0496147240470598
         vertex -0.173027105268897 0.34259 -0.0496147240470598
      endloop
   endfacet
   facet normal -0.970295726275997 0 -0.241921895599667
      outer loop
         vertex -0.173027105268897 0.34259 -0.0496147240470598
         vertex -0.173027105268897 0.12259 -0.0496147240470598
         vertex -0.176066568132085 0.12259 -0.0374241043471967
      endloop
   endfacet
   facet normal -0.970295726275997 0 -0.241921895599667
      outer loop
         vertex -0.173027105268897 0.34259 -0.0496147240470598
         vertex -0.176066568132085 0.12259 -0.0374241043471967
         vertex -0.176066568132085 0.34259 -0.0374241043471967
      endloop
   endfacet
   facet normal -0.984807753012208 0 -0.17364817766693
      outer loop
         vertex -0.176066568132085 0.34259 -0.0374241043471967
         vertex -0.176066568132085 0.12259 -0.0374241043471967
         vertex -0.178248252373483 0.12259 -0.0250511581728118
      endloop
   endfacet
   facet normal -0.984807753012208 0 -0.17364817766693
      outer loop
         vertex -0.176066568132085 0.34259 -0.0374241043471967
         vertex -0.178248252373483 0.12259 -0.0250511581728118
         vertex -0.178248252373483 0.34259 -0.0250511581728118
      endloop
   endfacet
   facet normal -0.994521895368273 0 -0.104528463267653
      outer loop
         vertex -0.178248252373483 0.34259 -0.0250511581728118
         vertex -0.178248252373483 0.12259 -0.0250511581728118
         vertex -0.179561529046768 0.12259 -0.0125561652739426
      endloop
   endfacet
   facet normal -0.994521895368273 0 -0.104528463267653
      outer loop
         vertex -0.178248252373483 0.34259 -0.0250511581728118
         vertex -0.179561529046768 0.12259 -0.0125561652739426
         vertex -0.179561529046768 0.34259 -0.0125561652739426
      endloop
   endfacet
   facet normal -0.999390827019096 0 -0.0348994967025026
      outer loop
         vertex -0.179561529046768 0.34259 -0.0125561652739426
         vertex -0.179561529046768 0.12259 -0.0125561652739426
         vertex -0.18 0.12259 0
      endloop
   endfacet
   facet normal -0.999390827019096 0 -0.0348994967025026
      outer loop
         vertex -0.179561529046768 0.34259 -0.0125561652739426
         vertex -0.18 0.12259 0
         vertex -0.18 0.34259 0
      endloop
   endfacet
   facet normal -0.999390827019096 0 0.0348994967025026
      outer loop
         vertex -0.18 0.34259 0
         vertex -0.18 0.12259 0
         vertex -0.179561529046768 0.12259 0.0125561652739426
      endloop
   endfacet
   facet normal -0.999390827019096 0 0.0348994967025026
      outer loop
         vertex -0.18 0.34259 0
         vertex -0.179561529046768 0.12259 0.0125561652739426
         vertex -0.179561529046768 0.34259 0.0125561652739426
      endloop
   endfacet
   facet normal -0.994521895368274 0 0.104528463267652
      outer loop
         vertex -0.179561529046768 0.34259 0.0125561652739426
         vertex -0.179561529046768 0.12259 0.0125561652739426
         vertex -0.178248252373483 0.12259 0.0250511581728117
      endloop
   endfacet
   facet normal -0.994521895368274 0 0.104528463267652
      outer loop
         vertex -0.179561529046768 0.34259 0.0125561652739426
         vertex -0.178248252373483 0.12259 0.0250511581728117
         vertex -0.178248252373483 0.34259 0.0250511581728117
      endloop
   endfacet
   facet normal -0.984807753012208 0 0.17364817766693
      outer loop
         vertex -0.178248252373483 0.34259 0.0250511581728117
         vertex -0.178248252373483 0.12259 0.0250511581728117
         vertex -0.176066568132085 0.12259 0.0374241043471967
      endloop
   endfacet
   facet normal -0.984807753012208 0 0.17364817766693
      outer loop
         vertex -0.178248252373483 0.34259 0.0250511581728117
         vertex -0.176066568132085 0.12259 0.0374241043471967
         vertex -0.176066568132085 0.34259 0.0374241043471967
      endloop
   endfacet
   facet normal -0.970295726275996 0 0.241921895599668
      outer loop
         vertex -0.176066568132085 0.34259 0.0374241043471967
         vertex -0.176066568132085 0.12259 0.0374241043471967
         vertex -0.173027105268897 0.12259 0.0496147240470598
      endloop
   endfacet
   facet normal -0.970295726275996 0 0.241921895599668
      outer loop
         vertex -0.176066568132085 0.34259 0.0374241043471967
         vertex -0.173027105268897 0.12259 0.0496147240470598
         vertex -0.173027105268897 0.34259 0.0496147240470598
      endloop
   endfacet
   facet normal -0.951056516295153 0 0.309016994374949
      outer loop
         vertex -0.173027105268897 0.34259 0.0496147240470598
         vertex -0.173027105268897 0.12259 0.0496147240470598
         vertex -0.169144671741463 0.12259 0.0615636257986204
      endloop
   endfacet
   facet normal -0.951056516295153 0 0.309016994374949
      outer loop
         vertex -0.173027105268897 0.34259 0.0496147240470598
         vertex -0.169144671741463 0.12259 0.0615636257986204
         vertex -0.169144671741463 0.34259 0.0615636257986204
      endloop
   endfacet
   facet normal -0.927183854566788 0 0.374606593415912
      outer loop
         vertex -0.169144671741463 0.34259 0.0615636257986204
         vertex -0.169144671741463 0.12259 0.0615636257986204
         vertex -0.164438182375668 0.12259 0.073212595753644
      endloop
   endfacet
   facet normal -0.927183854566788 0 0.374606593415912
      outer loop
         vertex -0.169144671741463 0.34259 0.0615636257986204
         vertex -0.164438182375668 0.12259 0.073212595753644
         vertex -0.164438182375668 0.34259 0.073212595753644
      endloop
   endfacet
   facet normal -0.898794046299167 0 0.438371146789077
      outer loop
         vertex -0.164438182375668 0.34259 0.073212595753644
         vertex -0.164438182375668 0.12259 0.073212595753644
         vertex -0.158930566714607 0.12259 0.0845048813014603
      endloop
   endfacet
   facet normal -0.898794046299167 0 0.438371146789077
      outer loop
         vertex -0.164438182375668 0.34259 0.073212595753644
         vertex -0.158930566714607 0.12259 0.0845048813014603
         vertex -0.158930566714607 0.34259 0.0845048813014603
      endloop
   endfacet
   facet normal -0.86602540378444 0 0.499999999999997
      outer loop
         vertex -0.158930566714607 0.34259 0.0845048813014603
         vertex -0.158930566714607 0.12259 0.0845048813014603
         vertex -0.152648657308157 0.12259 0.0953854675619769
      endloop
   endfacet
   facet normal -0.86602540378444 0 0.499999999999997
      outer loop
         vertex -0.158930566714607 0.34259 0.0845048813014603
         vertex -0.152648657308157 0.12259 0.0953854675619769
         vertex -0.152648657308157 0.34259 0.0953854675619769
      endloop
   endfacet
   facet normal -0.829037572555041 0 0.559192903470748
      outer loop
         vertex -0.152648657308157 0.34259 0.0953854675619769
         vertex -0.152648657308157 0.12259 0.0953854675619769
         vertex -0.145623058987491 0.12259 0.105801345412645
      endloop
   endfacet
   facet normal -0.829037572555041 0 0.559192903470748
      outer loop
         vertex -0.152648657308157 0.34259 0.0953854675619769
         vertex -0.145623058987491 0.12259 0.105801345412645
         vertex -0.145623058987491 0.34259 0.105801345412645
      endloop
   endfacet
   facet normal -0.788010753606721 0 0.61566147532566
      outer loop
         vertex -0.145623058987491 0.34259 0.105801345412645
         vertex -0.145623058987491 0.12259 0.105801345412645
         vertex -0.137887999761416 0.12259 0.115701769743577
      endloop
   endfacet
   facet normal -0.788010753606721 0 0.61566147532566
      outer loop
         vertex -0.145623058987491 0.34259 0.105801345412645
         vertex -0.137887999761416 0.12259 0.115701769743577
         vertex -0.137887999761416 0.34259 0.115701769743577
      endloop
   endfacet
   facet normal -0.743144825477394 0 0.669130606358858
      outer loop
         vertex -0.137887999761416 0.34259 0.115701769743577
         vertex -0.137887999761416 0.12259 0.115701769743577
         vertex -0.129481164060957 0.12259 0.125038506682619
      endloop
   endfacet
   facet normal -0.743144825477394 0 0.669130606358858
      outer loop
         vertex -0.137887999761416 0.34259 0.115701769743577
         vertex -0.129481164060957 0.12259 0.125038506682619
         vertex -0.129481164060957 0.34259 0.125038506682619
      endloop
   endfacet
   facet normal -0.694658370458998 0 0.719339800338651
      outer loop
         vertex -0.129481164060957 0.34259 0.125038506682619
         vertex -0.129481164060957 0.12259 0.125038506682619
         vertex -0.120443509144594 0.12259 0.133766068585931
      endloop
   endfacet
   facet normal -0.694658370458998 0 0.719339800338651
      outer loop
         vertex -0.129481164060957 0.34259 0.125038506682619
         vertex -0.120443509144594 0.12259 0.133766068585931
         vertex -0.120443509144594 0.34259 0.133766068585931
      endloop
   endfacet
   facet normal -0.642787609686538 0 0.766044443118979
      outer loop
         vertex -0.120443509144594 0.34259 0.133766068585931
         vertex -0.120443509144594 0.12259 0.133766068585931
         vertex -0.110819065558618 0.12259 0.14184193564921
      endloop
   endfacet
   facet normal -0.642787609686538 0 0.766044443118979
      outer loop
         vertex -0.120443509144594 0.34259 0.133766068585931
         vertex -0.110819065558618 0.12259 0.14184193564921
         vertex -0.110819065558618 0.34259 0.14184193564921
      endloop
   endfacet
   facet normal -0.587785252292475 0 0.809016994374946
      outer loop
         vertex -0.110819065558618 0.34259 0.14184193564921
         vertex -0.110819065558618 0.12259 0.14184193564921
         vertex -0.100654722624734 0.12259 0.149226763059907
      endloop
   endfacet
   facet normal -0.587785252292475 0 0.809016994374946
      outer loop
         vertex -0.110819065558618 0.34259 0.14184193564921
         vertex -0.100654722624734 0.12259 0.149226763059907
         vertex -0.100654722624734 0.34259 0.149226763059907
      endloop
   endfacet
   facet normal -0.529919264233205 0 0.848048096156426
      outer loop
         vertex -0.100654722624734 0.34259 0.149226763059907
         vertex -0.100654722624734 0.12259 0.149226763059907
         vertex -0.09 0.12259 0.155884572681199
      endloop
   endfacet
   facet normal -0.529919264233205 0 0.848048096156426
      outer loop
         vertex -0.100654722624734 0.34259 0.149226763059907
         vertex -0.09 0.12259 0.155884572681199
         vertex -0.09 0.34259 0.155884572681199
      endloop
   endfacet
   facet normal -0.469471562785892 0 0.882947592858926
      outer loop
         vertex -0.09 0.34259 0.155884572681199
         vertex -0.09 0.12259 0.155884572681199
         vertex -0.078906806422034 0.12259 0.16178292833385
      endloop
   endfacet
   facet normal -0.469471562785892 0 0.882947592858926
      outer loop
         vertex -0.09 0.34259 0.155884572681199
         vertex -0.078906806422034 0.12259 0.16178292833385
         vertex -0.078906806422034 0.34259 0.16178292833385
      endloop
   endfacet
   facet normal -0.4067366430758 0 0.913545457642601
      outer loop
         vertex -0.078906806422034 0.34259 0.16178292833385
         vertex -0.078906806422034 0.12259 0.16178292833385
         vertex -0.0674291868148642 0.12259 0.166893093822022
      endloop
   endfacet
   facet normal -0.4067366430758 0 0.913545457642601
      outer loop
         vertex -0.078906806422034 0.34259 0.16178292833385
         vertex -0.0674291868148642 0.12259 0.166893093822022
         vertex -0.0674291868148642 0.34259 0.166893093822022
      endloop
   endfacet
   facet normal -0.342020143325668 0 0.939692620785909
      outer loop
         vertex -0.0674291868148642 0.34259 0.166893093822022
         vertex -0.0674291868148642 0.12259 0.166893093822022
         vertex -0.0556230589874905 0.12259 0.171190172933128
      endloop
   endfacet
   facet normal -0.342020143325668 0 0.939692620785909
      outer loop
         vertex -0.0674291868148642 0.34259 0.166893093822022
         vertex -0.0556230589874905 0.12259 0.171190172933128
         vertex -0.0556230589874905 0.34259 0.171190172933128
      endloop
   endfacet
   facet normal -0.275637355817 0 0.961261695938319
      outer loop
         vertex -0.0556230589874905 0.34259 0.171190172933128
         vertex -0.0556230589874905 0.12259 0.171190172933128
         vertex -0.0435459412079402 0.12259 0.174653230729679
      endloop
   endfacet
   facet normal -0.275637355817 0 0.961261695938319
      outer loop
         vertex -0.0556230589874905 0.34259 0.171190172933128
         vertex -0.0435459412079402 0.12259 0.174653230729679
         vertex -0.0435459412079402 0.34259 0.174653230729679
      endloop
   endfacet
   facet normal -0.207911690817759 0 0.978147600733806
      outer loop
         vertex -0.0435459412079402 0.34259 0.174653230729679
         vertex -0.0435459412079402 0.12259 0.174653230729679
         vertex -0.0312566719800475 0.12259 0.177265395542197
      endloop
   endfacet
   facet normal -0.207911690817759 0 0.978147600733806
      outer loop
         vertex -0.0435459412079402 0.34259 0.174653230729679
         vertex -0.0312566719800475 0.12259 0.177265395542197
         vertex -0.0312566719800475 0.34259 0.177265395542197
      endloop
   endfacet
   facet normal -0.139173100960067 0 0.99026806874157
      outer loop
         vertex -0.0312566719800475 0.34259 0.177265395542197
         vertex -0.0312566719800475 0.12259 0.177265395542197
         vertex -0.0188151233881777 0.12259 0.179013941166289
      endloop
   endfacet
   facet normal -0.139173100960067 0 0.99026806874157
      outer loop
         vertex -0.0312566719800475 0.34259 0.177265395542197
         vertex -0.0188151233881777 0.12259 0.179013941166289
         vertex -0.0188151233881777 0.34259 0.179013941166289
      endloop
   endfacet
   facet normal -0.0697564737441251 0 0.997564050259824
      outer loop
         vertex -0.0188151233881777 0.34259 0.179013941166289
         vertex -0.0188151233881777 0.12259 0.179013941166289
         vertex -0.00628190940645019 0.12259 0.179890348863437
      endloop
   endfacet
   facet normal -0.0697564737441251 0 0.997564050259824
      outer loop
         vertex -0.0188151233881777 0.34259 0.179013941166289
         vertex -0.00628190940645019 0.12259 0.179890348863437
         vertex -0.00628190940645019 0.34259 0.179890348863437
      endloop
   endfacet
   facet normal 0 0 1
      outer loop
         vertex -0.00628190940645019 0.34259 0.179890348863437
         vertex -0.00628190940645019 0.12259 0.179890348863437
         vertex 0.00628190940645017 0.12259 0.179890348863437
      endloop
   endfacet
   facet normal 0 0 1
      outer loop
         vertex -0.00628190940645019 0.34259 0.179890348863437
         vertex 0.00628190940645017 0.12259 0.179890348863437
         vertex 0.00628190940645017 0.34259 0.179890348863437
      endloop
   endfacet
   facet normal 0.0697564737441253 0 0.997564050259824
      outer loop
         vertex 0.00628190940645017 0.34259 0.179890348863437
         vertex 0.00628190940645017 0.12259 0.179890348863437
         vertex 0.0188151233881776 0.12259 0.179013941166289
      endloop
   endfacet
   facet normal 0.0697564737441253 0 0.997564050259824
      outer loop
         vertex 0.00628190940645017 0.34259 0.179890348863437
         vertex 0.0188151233881776 0.12259 0.179013941166289
         vertex 0.0188151233881776 0.34259 0.179013941166289
      endloop
   endfacet
   facet normal 0.139173100960067 0 0.99026806874157
      outer loop
         vertex 0.0188151233881776 0.34259 0.179013941166289
         vertex 0.0188151233881776 0.12259 0.179013941166289
         vertex 0.0312566719800475 0.12259 0.177265395542197
      endloop
   endfacet
   facet normal 0.139173100960067 0 0.99026806874157
      outer loop
         vertex 0.0188151233881776 0.34259 0.179013941166289
         vertex 0.0312566719800475 0.12259 0.177265395542197
         vertex 0.0312566719800475 0.34259 0.177265395542197
      endloop
   endfacet
   facet normal 0.207911690817759 0 0.978147600733806
      outer loop
         vertex 0.0312566719800475 0.34259 0.177265395542197
         vertex 0.0312566719800475 0.12259 0.177265395542197
         vertex 0.0435459412079402 0.12259 0.174653230729679
      endloop
   endfacet
   facet normal 0.207911690817759 0 0.978147600733806
      outer loop
         vertex 0.0312566719800475 0.34259 0.177265395542197
         vertex 0.0435459412079402 0.12259 0.174653230729679
         vertex 0.0435459412079402 0.34259 0.174653230729679
      endloop
   endfacet
   facet normal 0.275637355816996 0 0.96126169593832
      outer loop
         vertex 0.0435459412079402 0.34259 0.174653230729679
         vertex 0.0435459412079402 0.12259 0.174653230729679
         vertex 0.0556230589874905 0.12259 0.171190172933128
      endloop
   endfacet
   facet normal 0.275637355816996 0 0.96126169593832
      outer loop
         vertex 0.0435459412079402 0.34259 0.174653230729679
         vertex 0.0556230589874905 0.12259 0.171190172933128
         vertex 0.0556230589874905 0.34259 0.171190172933128
      endloop
   endfacet
   facet normal 0.342020143325671 0 0.939692620785908
      outer loop
         vertex 0.0556230589874905 0.34259 0.171190172933128
         vertex 0.0556230589874905 0.12259 0.171190172933128
         vertex 0.0674291868148641 0.12259 0.166893093822022
      endloop
   endfacet
   facet normal 0.342020143325671 0 0.939692620785908
      outer loop
         vertex 0.0556230589874905 0.34259 0.171190172933128
         vertex 0.0674291868148641 0.12259 0.166893093822022
         vertex 0.0674291868148641 0.34259 0.166893093822022
      endloop
   endfacet
   facet normal 0.406736643075801 0 0.913545457642601
      outer loop
         vertex 0.0674291868148641 0.34259 0.166893093822022
         vertex 0.0674291868148641 0.12259 0.166893093822022
         vertex 0.0789068064220339 0.12259 0.16178292833385
      endloop
   endfacet
   facet normal 0.406736643075801 0 0.913545457642601
      outer loop
         vertex 0.0674291868148641 0.34259 0.166893093822022
         vertex 0.0789068064220339 0.12259 0.16178292833385
         vertex 0.0789068064220339 0.34259 0.16178292833385
      endloop
   endfacet
   facet normal 0.469471562785889 0 0.882947592858928
      outer loop
         vertex 0.0789068064220339 0.34259 0.16178292833385
         vertex 0.0789068064220339 0.12259 0.16178292833385
         vertex 0.09 0.12259 0.155884572681199
      endloop
   endfacet
   facet normal 0.469471562785889 0 0.882947592858928
      outer loop
         vertex 0.0789068064220339 0.34259 0.16178292833385
         vertex 0.09 0.12259 0.155884572681199
         vertex 0.09 0.34259 0.155884572681199
      endloop
   endfacet
   facet normal 0.529919264233208 0 0.848048096156424
      outer loop
         vertex 0.09 0.34259 0.155884572681199
         vertex 0.09 0.12259 0.155884572681199
         vertex 0.100654722624734 0.12259 0.149226763059907
      endloop
   endfacet
   facet normal 0.529919264233208 0 0.848048096156424
      outer loop
         vertex 0.09 0.34259 0.155884572681199
         vertex 0.100654722624734 0.12259 0.149226763059907
         vertex 0.100654722624734 0.34259 0.149226763059907
      endloop
   endfacet
   facet normal 0.58778525229247 0 0.80901699437495
      outer loop
         vertex 0.100654722624734 0.34259 0.149226763059907
         vertex 0.100654722624734 0.12259 0.149226763059907
         vertex 0.110819065558618 0.12259 0.14184193564921
      endloop
   endfacet
   facet normal 0.58778525229247 0 0.80901699437495
      outer loop
         vertex 0.100654722624734 0.34259 0.149226763059907
         vertex 0.110819065558618 0.12259 0.14184193564921
         vertex 0.110819065558618 0.34259 0.14184193564921
      endloop
   endfacet
   facet normal 0.642787609686541 0 0.766044443118977
      outer loop
         vertex 0.110819065558618 0.34259 0.14184193564921
         vertex 0.110819065558618 0.12259 0.14184193564921
         vertex 0.120443509144594 0.12259 0.133766068585931
      endloop
   endfacet
   facet normal 0.642787609686541 0 0.766044443118977
      outer loop
         vertex 0.110819065558618 0.34259 0.14184193564921
         vertex 0.120443509144594 0.12259 0.133766068585931
         vertex 0.120443509144594 0.34259 0.133766068585931
      endloop
   endfacet
   facet normal 0.694658370458997 0 0.719339800338652
      outer loop
         vertex 0.120443509144594 0.34259 0.133766068585931
         vertex 0.120443509144594 0.12259 0.133766068585931
         vertex 0.129481164060957 0.12259 0.12503850668262
      endloop
   endfacet
   facet normal 0.694658370458997 0 0.719339800338652
      outer loop
         vertex 0.120443509144594 0.34259 0.133766068585931
         vertex 0.129481164060957 0.12259 0.12503850668262
         vertex 0.129481164060957 0.34259 0.12503850668262
      endloop
   endfacet
   facet normal 0.743144825477393 0 0.66913060635886
      outer loop
         vertex 0.129481164060957 0.34259 0.12503850668262
         vertex 0.129481164060957 0.12259 0.12503850668262
         vertex 0.137887999761416 0.12259 0.115701769743577
      endloop
   endfacet
   facet normal 0.743144825477393 0 0.66913060635886
      outer loop
         vertex 0.129481164060957 0.34259 0.12503850668262
         vertex 0.137887999761416 0.12259 0.115701769743577
         vertex 0.137887999761416 0.34259 0.115701769743577
      endloop
   endfacet
   facet normal 0.788010753606723 0 0.615661475325657
      outer loop
         vertex 0.137887999761416 0.34259 0.115701769743577
         vertex 0.137887999761416 0.12259 0.115701769743577
         vertex 0.145623058987491 0.12259 0.105801345412645
      endloop
   endfacet
   facet normal 0.788010753606723 0 0.615661475325657
      outer loop
         vertex 0.137887999761416 0.34259 0.115701769743577
         vertex 0.145623058987491 0.12259 0.105801345412645
         vertex 0.145623058987491 0.34259 0.105801345412645
      endloop
   endfacet
   facet normal 0.829037572555041 0 0.559192903470748
      outer loop
         vertex 0.145623058987491 0.34259 0.105801345412645
         vertex 0.145623058987491 0.12259 0.105801345412645
         vertex 0.152648657308157 0.12259 0.0953854675619769
      endloop
   endfacet
   facet normal 0.829037572555041 0 0.559192903470748
      outer loop
         vertex 0.145623058987491 0.34259 0.105801345412645
         vertex 0.152648657308157 0.12259 0.0953854675619769
         vertex 0.152648657308157 0.34259 0.0953854675619769
      endloop
   endfacet
   facet normal 0.866025403784439 0 0.5
      outer loop
         vertex 0.152648657308157 0.34259 0.0953854675619769
         vertex 0.152648657308157 0.12259 0.0953854675619769
         vertex 0.158930566714607 0.12259 0.0845048813014603
      endloop
   endfacet
   facet normal 0.866025403784439 0 0.5
      outer loop
         vertex 0.152648657308157 0.34259 0.0953854675619769
         vertex 0.158930566714607 0.12259 0.0845048813014603
         vertex 0.158930566714607 0.34259 0.0845048813014603
      endloop
   endfacet
   facet normal 0.898794046299167 0 0.438371146789078
      outer loop
         vertex 0.158930566714607 0.34259 0.0845048813014603
         vertex 0.158930566714607 0.12259 0.0845048813014603
         vertex 0.164438182375668 0.12259 0.0732125957536441
      endloop
   endfacet
   facet normal 0.898794046299167 0 0.438371146789078
      outer loop
         vertex 0.158930566714607 0.34259 0.0845048813014603
         vertex 0.164438182375668 0.12259 0.0732125957536441
         vertex 0.164438182375668 0.34259 0.0732125957536441
      endloop
   endfacet
   facet normal 0.927183854566788 0 0.374606593415912
      outer loop
         vertex 0.164438182375668 0.34259 0.0732125957536441
         vertex 0.164438182375668 0.12259 0.0732125957536441
         vertex 0.169144671741463 0.12259 0.0615636257986204
      endloop
   endfacet
   facet normal 0.927183854566788 0 0.374606593415912
      outer loop
         vertex 0.164438182375668 0.34259 0.0732125957536441
         vertex 0.169144671741463 0.12259 0.0615636257986204
         vertex 0.169144671741463 0.34259 0.0615636257986204
      endloop
   endfacet
   facet normal 0.951056516295153 0 0.309016994374949
      outer loop
         vertex 0.169144671741463 0.34259 0.0615636257986204
         vertex 0.169144671741463 0.12259 0.0615636257986204
         vertex 0.173027105268897 0.12259 0.0496147240470599
      endloop
   endfacet
   facet normal 0.951056516295153 0 0.309016994374949
      outer loop
         vertex 0.169144671741463 0.34259 0.0615636257986204
         vertex 0.173027105268897 0.12259 0.0496147240470599
         vertex 0.173027105268897 0.34259 0.0496147240470599
      endloop
   endfacet
   facet normal 0.970295726275996 0 0.241921895599668
      outer loop
         vertex 0.173027105268897 0.34259 0.0496147240470599
         vertex 0.173027105268897 0.12259 0.0496147240470599
         vertex 0.176066568132085 0.12259 0.0374241043471967
      endloop
   endfacet
   facet normal 0.970295726275996 0 0.241921895599668
      outer loop
         vertex 0.173027105268897 0.34259 0.0496147240470599
         vertex 0.176066568132085 0.12259 0.0374241043471967
         vertex 0.176066568132085 0.34259 0.0374241043471967
      endloop
   endfacet
   facet normal 0.984807753012208 0 0.173648177666929
      outer loop
         vertex 0.176066568132085 0.34259 0.0374241043471967
         vertex 0.176066568132085 0.12259 0.0374241043471967
         vertex 0.178248252373483 0.12259 0.0250511581728118
      endloop
   endfacet
   facet normal 0.984807753012208 0 0.173648177666929
      outer loop
         vertex 0.176066568132085 0.34259 0.0374241043471967
         vertex 0.178248252373483 0.12259 0.0250511581728118
         vertex 0.178248252373483 0.34259 0.0250511581728118
      endloop
   endfacet
   facet normal 0.994521895368273 0 0.104528463267653
      outer loop
         vertex 0.178248252373483 0.34259 0.0250511581728118
         vertex 0.178248252373483 0.12259 0.0250511581728118
         vertex 0.179561529046768 0.12259 0.0125561652739426
      endloop
   endfacet
   facet normal 0.994521895368273 0 0.104528463267653
      outer loop
         vertex 0.178248252373483 0.34259 0.0250511581728118
         vertex 0.179561529046768 0.12259 0.0125561652739426
         vertex 0.179561529046768 0.34259 0.0125561652739426
      endloop
   endfacet
   facet normal 0.999390827019096 0 0.0348994967025026
      outer loop
         vertex 0.179561529046768 0.34259 0.0125561652739426
         vertex 0.179561529046768 0.12259 0.0125561652739426
         vertex 0.18 0.12259 2.20436423846524E-17
      endloop
   endfacet
endsolid
