solid "Design5<stl unit=M>"
   facet normal -0.165916555089961 -0.343973660155456 0.924204424284118
      outer loop
         vertex 0.15962908352746 0.0126765173274513 -0.0130013836873696
         vertex 0.0988727855084374 -0.0188445282027747 -0.0356401901251344
         vertex 0.139445823689927 -0.04039 -0.036375239700111
      endloop
   endfacet
   facet normal -0.16591655508996 -0.343973660155453 0.92420442428412
      outer loop
         vertex 0.139445823689927 -0.04039 -0.036375239700111
         vertex 0.0988727855084374 -0.0188445282027747 -0.0356401901251344
         vertex -0.0723285280246164 -0.04039 -0.0743937450974458
      endloop
   endfacet
   facet normal -0.165916555089959 -0.343973660155457 0.924204424284118
      outer loop
         vertex 2.03830008427275E-17 0.124606727156092 1.04083408558608E-17
         vertex -0.0803017027982923 -0.0188445282027746 -0.0678062489306694
         vertex 0.0988727855084374 -0.0188445282027747 -0.0356401901251344
      endloop
   endfacet
   facet normal -0.165916555089959 -0.343973660155457 0.924204424284119
      outer loop
         vertex 0.0988727855084374 -0.0188445282027747 -0.0356401901251344
         vertex -0.0803017027982923 -0.0188445282027746 -0.0678062489306694
         vertex -0.0723285280246164 -0.04039 -0.0743937450974458
      endloop
   endfacet
   facet normal -0.938910233730009 -0.343973660155458 -0.0113883324642831
      outer loop
         vertex -0.0803017027982923 -0.0188445282027746 -0.0678062489306694
         vertex -0.0910740703213409 0.0126765173274515 -0.131742149673924
         vertex -0.0723285280246164 -0.04039 -0.0743937450974458
      endloop
   endfacet
   facet normal -0.938910233730009 -0.343973660155458 -0.0113883324642839
      outer loop
         vertex -0.0723285280246164 -0.04039 -0.0743937450974458
         vertex -0.0910740703213409 0.0126765173274515 -0.131742149673924
         vertex -0.0638720152283079 -0.04039 -0.77159032159572
      endloop
   endfacet
   facet normal -0.93891023373001 -0.343973660155457 -0.011388332464284
      outer loop
         vertex -0.0910740703213409 0.0126765173274515 -0.131742149673924
         vertex -0.171092325594177 0.23259 -0.176918806848085
         vertex -0.0638720152283079 -0.04039 -0.77159032159572
      endloop
   endfacet
   facet normal -0.938910233730009 -0.343973660155457 -0.0113883324642838
      outer loop
         vertex -0.0638720152283079 -0.04039 -0.77159032159572
         vertex -0.171092325594177 0.23259 -0.176918806848085
         vertex -0.162432434323662 0.23259 -0.890882906717415
      endloop
   endfacet
   facet normal 0.165916555089958 -0.343973660155457 -0.924204424284119
      outer loop
         vertex 0.117380896920761 -0.04039 -0.739051136547898
         vertex -0.0638720152283079 -0.04039 -0.77159032159572
         vertex 0.214788974262796 0.23259 -0.82316274116278
      endloop
   endfacet
   facet normal 0.165916555089959 -0.343973660155457 -0.924204424284118
      outer loop
         vertex 0.214788974262796 0.23259 -0.82316274116278
         vertex -0.0638720152283079 -0.04039 -0.77159032159572
         vertex -0.162432434323662 0.23259 -0.890882906717415
      endloop
   endfacet
   facet normal 0.938516703636741 -0.343973660155457 -0.0294706313825212
      outer loop
         vertex 0.15962908352746 0.0126765173274513 -0.0130013836873696
         vertex 0.139445823689927 -0.04039 -0.036375239700111
         vertex 0.238762343934763 0.23259 -0.0597108969330727
      endloop
   endfacet
   facet normal 0.938516703636741 -0.343973660155457 -0.0294706313825208
      outer loop
         vertex 0.238762343934763 0.23259 -0.0597108969330727
         vertex 0.139445823689927 -0.04039 -0.036375239700111
         vertex 0.117380896920761 -0.04039 -0.739051136547898
      endloop
   endfacet
   facet normal 0.938516703636741 -0.343973660155457 -0.0294706313825209
      outer loop
         vertex 0.238762343934763 0.23259 -0.0597108969330727
         vertex 0.117380896920761 -0.04039 -0.739051136547898
         vertex 0.214788974262796 0.23259 -0.82316274116278
      endloop
   endfacet
   facet normal 0 -1 0
      outer loop
         vertex -0.0638720152283079 -0.04039 -0.77159032159572
         vertex 0.117380896920761 -0.04039 -0.739051136547898
         vertex -0.0723285280246164 -0.04039 -0.0743937450974458
      endloop
   endfacet
   facet normal 0 -1 0
      outer loop
         vertex -0.0723285280246164 -0.04039 -0.0743937450974458
         vertex 0.117380896920761 -0.04039 -0.739051136547898
         vertex 0.139445823689927 -0.04039 -0.036375239700111
      endloop
   endfacet
   facet normal 0.479317702085817 -0.343973660155457 -0.807425948051231
      outer loop
         vertex 0.0988727855084374 -0.0188445282027747 -0.0356401901251344
         vertex 0.15962908352746 0.0126765173274513 -0.0130013836873696
         vertex 0.10059113714936 -0.04039 -0.0254414701389297
      endloop
   endfacet
   facet normal 0.479317702085817 -0.343973660155458 -0.807425948051231
      outer loop
         vertex 0.10059113714936 -0.04039 -0.0254414701389297
         vertex 0.15962908352746 0.0126765173274513 -0.0130013836873696
         vertex 0.700152827430252 -0.04039 0.330480373019239
      endloop
   endfacet
   facet normal 0.479317702085818 -0.343973660155457 -0.807425948051231
      outer loop
         vertex 0.15962908352746 0.0126765173274513 -0.0130013836873696
         vertex 0.238762343934763 0.23259 -0.0597108969330727
         vertex 0.700152827430252 -0.04039 0.330480373019239
      endloop
   endfacet
   facet normal 0.479317702085817 -0.343973660155457 -0.807425948051231
      outer loop
         vertex 0.700152827430252 -0.04039 0.330480373019239
         vertex 0.238762343934763 0.23259 -0.0597108969330727
         vertex 0.852743446176435 0.23259 0.304770838835868
      endloop
   endfacet
   facet normal 0 1 0
      outer loop
         vertex 0.852743446176435 0.23259 0.304770838835868
         vertex 0.238762343934763 0.23259 -0.0597108969330727
         vertex 0.605485358164404 0.23259 0.597594078745773
      endloop
   endfacet
   facet normal 0 1 0
      outer loop
         vertex 0.605485358164404 0.23259 0.597594078745773
         vertex 0.238762343934763 0.23259 -0.0597108969330727
         vertex -0.0676700183405858 0.23259 0.236629703781158
      endloop
   endfacet
   facet normal 0 1 0
      outer loop
         vertex -0.0676700183405858 0.23259 0.236629703781158
         vertex 0.238762343934763 0.23259 -0.0597108969330727
         vertex -0.171092325594177 0.23259 -0.176918806848085
      endloop
   endfacet
   facet normal 0 1 0
      outer loop
         vertex -0.171092325594177 0.23259 -0.176918806848085
         vertex 0.238762343934763 0.23259 -0.0597108969330727
         vertex 0.214788974262796 0.23259 -0.82316274116278
      endloop
   endfacet
   facet normal 0 1 0
      outer loop
         vertex -0.171092325594177 0.23259 -0.176918806848085
         vertex 0.214788974262796 0.23259 -0.82316274116278
         vertex -0.162432434323662 0.23259 -0.890882906717415
      endloop
   endfacet
   facet normal 0 1 0
      outer loop
         vertex -0.171092325594177 0.23259 -0.176918806848085
         vertex -0.820274332427199 0.23259 0.225568662417007
         vertex -0.0676700183405858 0.23259 0.236629703781158
      endloop
   endfacet
   facet normal 0 1 0
      outer loop
         vertex -0.0676700183405858 0.23259 0.236629703781158
         vertex -0.820274332427199 0.23259 0.225568662417007
         vertex -0.690311011852772 0.23259 0.586112067881547
      endloop
   endfacet
   facet normal 0.883342787264998 -0.343973660155457 -0.318414260525755
      outer loop
         vertex 2.03830008427275E-17 0.124606727156092 1.04083408558608E-17
         vertex -0.018571082710145 -0.0188445282027746 0.103446439055804
         vertex -0.0803017027982923 -0.0188445282027746 -0.0678062489306694
      endloop
   endfacet
   facet normal 0.883342787264997 -0.343973660155458 -0.318414260525755
      outer loop
         vertex -0.0803017027982923 -0.0188445282027746 -0.0678062489306694
         vertex -0.018571082710145 -0.0188445282027746 0.103446439055804
         vertex -0.0282626091247438 -0.04039 0.0998352152363754
      endloop
   endfacet
   facet normal 0.883342787264999 -0.343973660155453 -0.318414260525755
      outer loop
         vertex -0.0803017027982923 -0.0188445282027746 -0.0678062489306694
         vertex -0.0282626091247438 -0.04039 0.0998352152363754
         vertex -0.101224793494008 -0.04039 -0.102576005917067
      endloop
   endfacet
   facet normal 0.883342787264999 -0.343973660155456 -0.318414260525753
      outer loop
         vertex -0.101224793494008 -0.04039 -0.102576005917067
         vertex -0.0910740703213409 0.0126765173274515 -0.131742149673924
         vertex -0.0803017027982923 -0.0188445282027746 -0.0678062489306694
      endloop
   endfacet
   facet normal 0.459592531644192 -0.343973660155457 0.818814280515515
      outer loop
         vertex -0.0676700183405858 0.23259 0.236629703781158
         vertex -0.636280812201944 -0.04039 0.441109948576481
         vertex -0.0685550132061194 0.0126765173274513 0.144743533361294
      endloop
   endfacet
   facet normal 0.459592531644192 -0.343973660155458 0.818814280515515
      outer loop
         vertex -0.0685550132061194 0.0126765173274513 0.144743533361294
         vertex -0.636280812201944 -0.04039 0.441109948576481
         vertex -0.0282626091247438 -0.04039 0.0998352152363754
      endloop
   endfacet
   facet normal 0.459592531644193 -0.343973660155457 0.818814280515514
      outer loop
         vertex -0.0685550132061194 0.0126765173274513 0.144743533361294
         vertex -0.0282626091247438 -0.04039 0.0998352152363754
         vertex -0.018571082710145 -0.0188445282027746 0.103446439055804
      endloop
   endfacet
   facet normal 0.459592531644192 -0.343973660155457 0.818814280515515
      outer loop
         vertex -0.0676700183405858 0.23259 0.236629703781158
         vertex -0.690311011852772 0.23259 0.586112067881547
         vertex -0.636280812201944 -0.04039 0.441109948576481
      endloop
   endfacet
   facet normal -0.883342787264997 -0.343973660155457 0.318414260525755
      outer loop
         vertex -0.698727507406622 -0.04039 0.267870729621568
         vertex -0.636280812201944 -0.04039 0.441109948576481
         vertex -0.820274332427199 0.23259 0.225568662417007
      endloop
   endfacet
   facet normal -0.883342787264997 -0.343973660155457 0.318414260525755
      outer loop
         vertex -0.820274332427199 0.23259 0.225568662417007
         vertex -0.636280812201944 -0.04039 0.441109948576481
         vertex -0.690311011852772 0.23259 0.586112067881547
      endloop
   endfacet
   facet normal -0.494780667261201 -0.343973660155457 -0.798043991534188
      outer loop
         vertex -0.0910740703213409 0.0126765173274515 -0.131742149673924
         vertex -0.101224793494008 -0.04039 -0.102576005917067
         vertex -0.171092325594177 0.23259 -0.176918806848085
      endloop
   endfacet
   facet normal -0.494780667261201 -0.343973660155457 -0.798043991534188
      outer loop
         vertex -0.171092325594177 0.23259 -0.176918806848085
         vertex -0.101224793494008 -0.04039 -0.102576005917067
         vertex -0.698727507406622 -0.04039 0.267870729621568
      endloop
   endfacet
   facet normal -0.494780667261201 -0.343973660155457 -0.798043991534188
      outer loop
         vertex -0.171092325594177 0.23259 -0.176918806848085
         vertex -0.698727507406622 -0.04039 0.267870729621568
         vertex -0.820274332427199 0.23259 0.225568662417007
      endloop
   endfacet
   facet normal 0 -1 0
      outer loop
         vertex -0.636280812201944 -0.04039 0.441109948576481
         vertex -0.698727507406622 -0.04039 0.267870729621568
         vertex -0.0282626091247438 -0.04039 0.0998352152363754
      endloop
   endfacet
   facet normal 0 -1 0
      outer loop
         vertex -0.0282626091247438 -0.04039 0.0998352152363754
         vertex -0.698727507406622 -0.04039 0.267870729621568
         vertex -0.101224793494008 -0.04039 -0.102576005917067
      endloop
   endfacet
   facet normal -0.44373603637554 -0.343973660155457 0.827514622916709
      outer loop
         vertex -0.0685550132061194 0.0126765173274513 0.144743533361294
         vertex -0.0382210301959188 -0.04039 0.138951245617178
         vertex -0.0676700183405858 0.23259 0.236629703781158
      endloop
   endfacet
   facet normal -0.44373603637554 -0.343973660155457 0.827514622916709
      outer loop
         vertex -0.0676700183405858 0.23259 0.236629703781158
         vertex -0.0382210301959188 -0.04039 0.138951245617178
         vertex 0.581346610485862 -0.04039 0.471180406926331
      endloop
   endfacet
   facet normal -0.44373603637554 -0.343973660155457 0.827514622916709
      outer loop
         vertex -0.0676700183405858 0.23259 0.236629703781158
         vertex 0.581346610485862 -0.04039 0.471180406926331
         vertex 0.605485358164404 0.23259 0.597594078745773
      endloop
   endfacet
   facet normal -0.717426232175039 -0.343973660155457 -0.605790163758364
      outer loop
         vertex 2.03830008427275E-17 0.124606727156092 1.04083408558608E-17
         vertex 0.0988727855084374 -0.0188445282027747 -0.0356401901251344
         vertex -0.018571082710145 -0.0188445282027746 0.103446439055804
      endloop
   endfacet
   facet normal -0.717426232175039 -0.343973660155457 -0.605790163758364
      outer loop
         vertex -0.018571082710145 -0.0188445282027746 0.103446439055804
         vertex 0.0988727855084374 -0.0188445282027747 -0.0356401901251344
         vertex 0.10059113714936 -0.04039 -0.0254414701389297
      endloop
   endfacet
   facet normal -0.71742623217504 -0.343973660155452 -0.605790163758365
      outer loop
         vertex -0.018571082710145 -0.0188445282027746 0.103446439055804
         vertex 0.10059113714936 -0.04039 -0.0254414701389297
         vertex -0.0382210301959188 -0.04039 0.138951245617178
      endloop
   endfacet
   facet normal -0.717426232175038 -0.343973660155456 -0.605790163758366
      outer loop
         vertex -0.0382210301959188 -0.04039 0.138951245617178
         vertex -0.0685550132061194 0.0126765173274513 0.144743533361294
         vertex -0.018571082710145 -0.0188445282027746 0.103446439055804
      endloop
   endfacet
   facet normal 0.71742623217504 -0.343973660155457 0.605790163758363
      outer loop
         vertex 0.581346610485862 -0.04039 0.471180406926331
         vertex 0.700152827430252 -0.04039 0.330480373019239
         vertex 0.605485358164404 0.23259 0.597594078745773
      endloop
   endfacet
   facet normal 0.717426232175039 -0.343973660155458 0.605790163758363
      outer loop
         vertex 0.605485358164404 0.23259 0.597594078745773
         vertex 0.700152827430252 -0.04039 0.330480373019239
         vertex 0.852743446176435 0.23259 0.304770838835868
      endloop
   endfacet
   facet normal 0 -1 0
      outer loop
         vertex 0.700152827430252 -0.04039 0.330480373019239
         vertex 0.581346610485862 -0.04039 0.471180406926331
         vertex 0.10059113714936 -0.04039 -0.0254414701389297
      endloop
   endfacet
   facet normal 0 -1 0
      outer loop
         vertex 0.10059113714936 -0.04039 -0.0254414701389297
         vertex 0.581346610485862 -0.04039 0.471180406926331
         vertex -0.0382210301959188 -0.04039 0.138951245617178
      endloop
   endfacet
endsolid
